<svg width="21" height="21" viewBox="0 0 21 21" fill="none" xmlns="http://www.w3.org/2000/svg">
<path opacity="0.2" d="M4.61047 9.1874C4.60831 8.41254 4.75906 7.64487 5.05409 6.92837C5.34911 6.21187 5.78262 5.56062 6.32976 5.01195C6.87691 4.46327 7.52694 4.02795 8.24261 3.73093C8.95828 3.4339 9.72553 3.28101 10.5004 3.28101C11.2753 3.28101 12.0425 3.4339 12.7582 3.73093C13.4738 4.02795 14.1239 4.46327 14.671 5.01195C15.2182 5.56062 15.6517 6.21187 15.9467 6.92837C16.2417 7.64487 16.3925 8.41254 16.3903 9.1874C16.3903 12.1254 17.005 13.8303 17.5464 14.7621C17.6047 14.8617 17.6357 14.9748 17.6363 15.0902C17.637 15.2056 17.6071 15.3191 17.5499 15.4193C17.4926 15.5195 17.41 15.6028 17.3103 15.6608C17.2105 15.7189 17.0973 15.7496 16.9819 15.7499H4.01826C3.90285 15.7496 3.78957 15.7189 3.68984 15.6608C3.5901 15.6028 3.50744 15.5194 3.4502 15.4192C3.39295 15.319 3.36314 15.2055 3.36378 15.0901C3.36442 14.9747 3.39548 14.8615 3.45383 14.7619C3.9955 13.8301 4.61047 12.1252 4.61047 9.1874H4.61047Z" fill="#2D4875"/>
<path d="M7.875 18.375H13.125" stroke="#2D4875" stroke-linecap="round" stroke-linejoin="round"/>
<path d="M4.61047 9.1874C4.60831 8.41254 4.75906 7.64487 5.05409 6.92837C5.34911 6.21187 5.78262 5.56062 6.32976 5.01195C6.87691 4.46327 7.52694 4.02795 8.24261 3.73093C8.95828 3.4339 9.72553 3.28101 10.5004 3.28101C11.2753 3.28101 12.0425 3.4339 12.7582 3.73093C13.4738 4.02795 14.1239 4.46327 14.671 5.01195C15.2182 5.56062 15.6517 6.21187 15.9467 6.92837C16.2417 7.64487 16.3925 8.41254 16.3903 9.1874V9.1874C16.3903 12.1254 17.005 13.8303 17.5464 14.7621C17.6047 14.8617 17.6357 14.9748 17.6363 15.0902C17.637 15.2056 17.6071 15.3191 17.5499 15.4193C17.4926 15.5195 17.41 15.6028 17.3103 15.6608C17.2105 15.7189 17.0973 15.7496 16.9819 15.7499H4.01826C3.90285 15.7496 3.78957 15.7189 3.68984 15.6608C3.5901 15.6028 3.50744 15.5194 3.4502 15.4192C3.39295 15.319 3.36314 15.2055 3.36378 15.0901C3.36442 14.9747 3.39548 14.8615 3.45383 14.7619C3.9955 13.8301 4.61047 12.1252 4.61047 9.1874H4.61047Z" stroke="#2D4875" stroke-linecap="round" stroke-linejoin="round"/>
<path d="M15.0474 1.96777C16.3827 2.81077 17.4592 4.00637 18.1579 5.42257" stroke="#2D4875" stroke-linecap="round" stroke-linejoin="round"/>
<path d="M2.84229 5.42257C3.54099 4.00637 4.61743 2.81077 5.95279 1.96777" stroke="#2D4875" stroke-linecap="round" stroke-linejoin="round"/>
</svg>
