<svg width="14" height="15" viewBox="0 0 14 15" fill="none" xmlns="http://www.w3.org/2000/svg">
<path d="M12.625 1.25H10.9375V0.6875C10.9375 0.538316 10.8782 0.395242 10.7727 0.289752C10.6673 0.184263 10.5242 0.125 10.375 0.125C10.2258 0.125 10.0827 0.184263 9.97725 0.289752C9.87176 0.395242 9.8125 0.538316 9.8125 0.6875V1.25H4.1875V0.6875C4.1875 0.538316 4.12824 0.395242 4.02275 0.289752C3.91726 0.184263 3.77418 0.125 3.625 0.125C3.47582 0.125 3.33274 0.184263 3.22725 0.289752C3.12176 0.395242 3.0625 0.538316 3.0625 0.6875V1.25H1.375C1.07672 1.25029 0.790745 1.36892 0.57983 1.57983C0.368916 1.79074 0.250295 2.07672 0.25 2.375V13.625C0.250295 13.9233 0.368916 14.2093 0.57983 14.4202C0.790745 14.6311 1.07672 14.7497 1.375 14.75H12.625C12.9233 14.7497 13.2093 14.6311 13.4202 14.4202C13.6311 14.2093 13.7497 13.9233 13.75 13.625V2.375C13.7497 2.07672 13.6311 1.79074 13.4202 1.57983C13.2093 1.36892 12.9233 1.25029 12.625 1.25ZM5.31291 12.2188C5.09139 12.2193 4.87194 12.176 4.66725 12.0913C4.46256 12.0066 4.27669 11.8822 4.12038 11.7252C4.01483 11.6198 3.95548 11.4767 3.9554 11.3275C3.95531 11.1784 4.01449 11.0352 4.11992 10.9297C4.22534 10.8241 4.36838 10.7648 4.51757 10.7647C4.66675 10.7646 4.80986 10.8238 4.91541 10.9292C4.98085 10.9946 5.0614 11.0428 5.14992 11.0696C5.23844 11.0964 5.3322 11.101 5.4229 11.0829C5.51361 11.0648 5.59845 11.0246 5.66992 10.9659C5.7414 10.9072 5.79729 10.8318 5.83266 10.7463C5.86803 10.6609 5.88178 10.568 5.87269 10.476C5.8636 10.3839 5.83196 10.2956 5.78056 10.2187C5.72917 10.1418 5.65961 10.0787 5.57803 10.0351C5.49646 9.99155 5.4054 9.96875 5.31291 9.96875H5.31257C5.29506 9.96875 5.27755 9.96772 5.26008 9.96607C5.25448 9.96556 5.24902 9.9647 5.24349 9.96403C5.23178 9.96257 5.22011 9.96087 5.20848 9.95869C5.20199 9.95746 5.19557 9.95608 5.18915 9.95464C5.17857 9.95227 5.16803 9.94953 5.15756 9.94652C5.15118 9.94469 5.14479 9.9429 5.13851 9.94084C5.12793 9.93739 5.11746 9.93344 5.10706 9.92934C5.10139 9.92711 5.09566 9.92508 5.0901 9.92268C5.07798 9.91744 5.06607 9.91154 5.05419 9.90539C5.05075 9.90359 5.04715 9.90208 5.04375 9.90023C5.02892 9.89211 5.01436 9.88326 5.00008 9.87369C4.99527 9.87046 4.99081 9.86684 4.98611 9.86347C4.97787 9.85759 4.96952 9.8519 4.96152 9.8455C4.96049 9.84468 4.9596 9.84373 4.95857 9.84289C4.95009 9.83599 4.94213 9.82854 4.93406 9.82116C4.92819 9.8158 4.92201 9.81067 4.91641 9.80511C4.91099 9.79972 4.90607 9.79387 4.90086 9.78825C4.83279 9.7148 4.78546 9.62459 4.7637 9.52684C4.76332 9.52506 4.7627 9.52333 4.76233 9.52154C4.76037 9.51206 4.7592 9.50232 4.75773 9.49267C4.75639 9.48393 4.75467 9.47526 4.75374 9.46647C4.75295 9.45925 4.75285 9.45185 4.75234 9.44453C4.75155 9.43302 4.75069 9.42152 4.75062 9.40996C4.75058 9.40871 4.75041 9.4075 4.75041 9.40625C4.75041 9.40041 4.7511 9.39475 4.75131 9.38895C4.75165 9.37729 4.75199 9.36565 4.75306 9.35401C4.75378 9.34615 4.75501 9.33847 4.75608 9.33072C4.75749 9.32025 4.75886 9.30979 4.76085 9.29939C4.76247 9.29103 4.76456 9.28289 4.76652 9.27465C4.76882 9.26508 4.77108 9.2555 4.7739 9.24599C4.77644 9.23747 4.77943 9.22918 4.78234 9.22084C4.78547 9.21193 4.78852 9.203 4.79209 9.1942C4.7956 9.1856 4.79958 9.17729 4.80349 9.16889C4.80734 9.16069 4.81105 9.15247 4.81531 9.14438C4.81991 9.13562 4.82506 9.1272 4.8301 9.11872C4.83446 9.11142 4.83865 9.10406 4.84336 9.0969C4.84933 9.08789 4.85582 9.0793 4.86227 9.07065C4.86618 9.06542 4.86955 9.05996 4.87367 9.05482L5.26756 8.5625H4.46916C4.31998 8.5625 4.1769 8.50324 4.07141 8.39775C3.96593 8.29226 3.90666 8.14918 3.90666 8C3.90666 7.85082 3.96593 7.70774 4.07141 7.60225C4.1769 7.49676 4.31998 7.4375 4.46916 7.4375H6.43791C6.54387 7.4375 6.64768 7.46743 6.73737 7.52384C6.82707 7.58025 6.89901 7.66084 6.94491 7.75634C6.99081 7.85185 7.0088 7.95837 6.99682 8.06365C6.98483 8.16893 6.94335 8.26868 6.87716 8.35142L6.25355 9.13094C6.55385 9.33249 6.78143 9.62522 6.90272 9.96594C7.02401 10.3067 7.03259 10.6774 6.9272 11.0233C6.8218 11.3693 6.60802 11.6722 6.31736 11.8875C6.02671 12.1027 5.67458 12.2189 5.31291 12.2188ZM9.81291 11.6562C9.81291 11.8054 9.75365 11.9485 9.64816 12.054C9.54267 12.1595 9.3996 12.2188 9.25041 12.2188C9.10123 12.2188 8.95815 12.1595 8.85266 12.054C8.74718 11.9485 8.68791 11.8054 8.68791 11.6562V9.125L8.4629 9.29378C8.34354 9.38328 8.19352 9.42171 8.04583 9.40061C7.89815 9.3795 7.76489 9.30059 7.67538 9.18124C7.58588 9.06188 7.54745 8.91186 7.56856 8.76417C7.58966 8.61648 7.66857 8.48323 7.78793 8.39372L8.91293 7.54997C8.9965 7.48731 9.09587 7.44915 9.19991 7.43977C9.30395 7.4304 9.40854 7.45018 9.50197 7.4969C9.5954 7.54362 9.67398 7.61543 9.7289 7.70429C9.78382 7.79315 9.81291 7.89554 9.81291 8V11.6562ZM12.625 4.625H1.375V2.375H3.0625V2.9375C3.0625 3.08668 3.12176 3.22976 3.22725 3.33525C3.33274 3.44074 3.47582 3.5 3.625 3.5C3.77418 3.5 3.91726 3.44074 4.02275 3.33525C4.12824 3.22976 4.1875 3.08668 4.1875 2.9375V2.375H9.8125V2.9375C9.8125 3.08668 9.87176 3.22976 9.97725 3.33525C10.0827 3.44074 10.2258 3.5 10.375 3.5C10.5242 3.5 10.6673 3.44074 10.7727 3.33525C10.8782 3.22976 10.9375 3.08668 10.9375 2.9375V2.375H12.625V4.625Z" fill="#F7981D"/>
</svg>
