<svg width="238" height="298" viewBox="0 0 238 298" fill="none" xmlns="http://www.w3.org/2000/svg">
<g clip-path="url(#clip0_0_1)">
<path fill-rule="evenodd" clip-rule="evenodd" d="M183.445 264.743L186.884 276.163L200.636 276.665L201.555 259.493L183.445 264.743Z" fill="#F3AEB4"/>
<path fill-rule="evenodd" clip-rule="evenodd" d="M201.24 274.689V289.694L164.058 290.542C164.058 290.542 165.115 279.819 184.128 279.644C184.057 274.932 184.049 274.689 184.049 274.689H201.24Z" fill="#066DC6"/>
<path fill-rule="evenodd" clip-rule="evenodd" d="M218.198 266.902L217.942 278.146L203.583 278.652L199.852 266.137L218.198 266.902Z" fill="#F3AEB4"/>
<path fill-rule="evenodd" clip-rule="evenodd" d="M196.482 0C180.857 0 177.623 14.989 177.615 20.4938C177.615 25.7397 178.629 26.5404 178.593 31.858C178.569 35.897 177.41 38.7251 177.516 41.0195C178.132 52.9692 194.131 56.4147 198.699 56.4825C203.267 56.5502 223.156 52.6625 223.156 43.3736C223.156 36.8928 219.074 26.5284 219.184 19.3307C219.429 4.38157 207.05 0 196.482 0Z" fill="black"/>
<path fill-rule="evenodd" clip-rule="evenodd" d="M218.276 276.151L218.063 291.167L181.563 292C181.563 292 181.563 281.05 201.555 280.847V276.151H218.276Z" fill="#066DC6"/>
<path fill-rule="evenodd" clip-rule="evenodd" d="M221.858 163.512L221.764 268.563L195.681 267.989L195.287 263.125L178.467 265.416L167.793 155.877L173.556 127.826L211.65 126.775L221.858 163.512Z" fill="#3B4161"/>
<path fill-rule="evenodd" clip-rule="evenodd" d="M191.129 208.149L175.489 234.689L178.459 265.137L195.307 263.145L191.129 208.149Z" fill="#15192C"/>
<path fill-rule="evenodd" clip-rule="evenodd" d="M202.103 136.227H174.396L170.644 94.8929L175.65 63.2182L185.117 54.0129L194.608 49.7349L211.748 52.3797L202.103 136.227Z" fill="#F7981D"/>
<path d="M212.999 268.371L212.818 156.629" stroke="#737999" strokeWidth="1.7" strokeLinecap="round" strokeLinejoin="round"/>
<path fill-rule="evenodd" clip-rule="evenodd" d="M206.865 49.225C213.342 49.4042 232.683 56.4944 235.507 63.6881C237.653 69.1452 239.124 118.522 234.083 120.931C233.759 121.089 233.421 121.215 233.073 121.306C233.377 122.819 236.28 157.868 235.543 160.784C234.805 163.7 232.868 168.113 230.063 167.954C219.212 167.296 199.275 152.913 197.295 150.567C196.991 146.121 196.151 129.424 196.151 129.424L197.879 79.88L207.768 52.5789C207.768 52.5789 200.387 49.0457 206.865 49.225Z" fill="white"/>
<path fill-rule="evenodd" clip-rule="evenodd" d="M192.751 48.9143C181.615 50.3124 165.896 59.0318 163.872 63.0031C162.168 66.341 163.032 109.555 163.032 109.555C163.032 109.555 169.343 118.299 166.499 130.874C163.888 142.473 163.115 158.131 165.852 161.059C170.365 158.752 176.168 149.507 177.213 147.229C178.258 144.95 178.53 132.061 179.335 129.304C180.14 126.548 183.741 77.749 183.741 77.749C183.741 77.749 185.422 58.0359 192.751 48.9143Z" fill="white"/>
<path d="M220.786 53.0648C215.181 63.3854 203.824 75.148 197.97 79.6371" stroke="#C9C9C9" strokeWidth="2" strokeLinecap="round" strokeLinejoin="round"/>
<path d="M187.114 50.0973C182.124 56.8927 180.838 68.4401 184.747 80.1668" stroke="#C9C9C9" strokeWidth="2" strokeLinecap="round" strokeLinejoin="round"/>
<path d="M215.121 81.8955C215.121 81.0083 214.86 80.141 214.372 79.4033C213.884 78.6657 213.19 78.0908 212.378 77.7514C211.566 77.4121 210.673 77.3235 209.811 77.4969C208.95 77.6703 208.158 78.0978 207.537 78.7255C206.916 79.3531 206.493 80.1527 206.323 81.023C206.152 81.8933 206.24 82.7952 206.577 83.6147C206.914 84.4342 207.484 85.1344 208.215 85.6267C208.946 86.1191 209.805 86.3815 210.683 86.3807C211.861 86.3796 212.989 85.9066 213.822 85.0656C214.654 84.2246 215.121 83.0844 215.121 81.8955V81.8955Z" stroke="#353823" strokeWidth="3.41" strokeLinecap="round" strokeLinejoin="round"/>
<path fill-rule="evenodd" clip-rule="evenodd" d="M212.959 81.8955C212.959 81.4425 212.826 80.9997 212.577 80.6231C212.327 80.2464 211.973 79.9529 211.559 79.7795C211.144 79.6062 210.688 79.5608 210.248 79.6492C209.808 79.7375 209.404 79.9557 209.087 80.276C208.77 80.5963 208.554 81.0044 208.466 81.4487C208.379 81.893 208.424 82.3535 208.595 82.772C208.767 83.1905 209.058 83.5482 209.431 83.7999C209.804 84.0516 210.242 84.1859 210.691 84.1859C211.292 84.1859 211.869 83.9446 212.295 83.5151C212.72 83.0855 212.959 82.503 212.959 81.8955Z" fill="#353823"/>
<path d="M211.883 77.5737C214.881 66.4565 215.074 50.9855 207.335 48.1973" stroke="#353823" strokeWidth="3.41" strokeLinecap="round" strokeLinejoin="round"/>
<path d="M193.82 46.3054C189.406 48.1934 185.201 56.9008 184.215 64.3574" stroke="#353823" strokeWidth="3.41" strokeLinecap="round" strokeLinejoin="round"/>
<path d="M188.98 78.3624C190.392 71.4714 188.262 65.2177 184.223 64.3573C180.183 63.4969 175.761 68.4122 174.361 75.3032C172.96 82.1943 175.079 88.448 179.118 89.3044C183.157 90.1608 187.568 85.2414 188.98 78.3624Z" stroke="#353823" strokeWidth="3.41" strokeLinecap="round" strokeLinejoin="round"/>
<path d="M216.45 67.5239L218.154 101.027" stroke="#C9C9C9" strokeWidth="2" strokeLinecap="round" strokeLinejoin="round"/>
<path d="M221.247 68.5119L216.817 74.7497" stroke="#C9C9C9" strokeWidth="2" strokeLinecap="round" strokeLinejoin="round"/>
<path fill-rule="evenodd" clip-rule="evenodd" d="M206.442 98.3624L223.476 102.477L206.442 98.3624Z" fill="#606060"/>
<path d="M206.442 98.3624L223.476 102.477" stroke="#C9C9C9" strokeWidth="2" strokeLinecap="round" strokeLinejoin="round"/>
<path d="M222.616 97.8764L218.277 101.222" stroke="#C9C9C9" strokeWidth="2" strokeLinecap="round" strokeLinejoin="round"/>
<path d="M205.796 117.765C212.959 120.676 229.977 124.158 233.192 121.274C237.491 117.414 238.714 77.5777 236.557 67.0102C235.298 60.86 228.943 56.9007 225.63 55.3074" stroke="#C9C9C9" strokeWidth="2" strokeLinecap="round" strokeLinejoin="round"/>
<path d="M210.916 119.47C212.959 116.853 213.74 103.803 212.754 99.8879" stroke="#C9C9C9" strokeWidth="2" strokeLinecap="round" strokeLinejoin="round"/>
<path fill-rule="evenodd" clip-rule="evenodd" d="M210.691 102.437C210.692 102.229 210.632 102.025 210.518 101.852C210.404 101.678 210.241 101.543 210.051 101.463C209.861 101.383 209.652 101.361 209.449 101.401C209.247 101.441 209.061 101.541 208.915 101.688C208.769 101.835 208.669 102.023 208.629 102.227C208.588 102.431 208.609 102.642 208.688 102.835C208.766 103.027 208.9 103.192 209.071 103.307C209.242 103.423 209.444 103.485 209.65 103.485C209.787 103.485 209.922 103.459 210.048 103.406C210.175 103.354 210.289 103.277 210.386 103.179C210.483 103.082 210.56 102.966 210.612 102.839C210.664 102.712 210.691 102.575 210.691 102.437Z" fill="#C9C9C9"/>
<path d="M212.589 134.423C214.854 135.306 217.261 135.758 219.689 135.757C221.491 135.739 223.281 135.471 225.011 134.96C225.141 135.465 225.211 135.984 225.22 136.506V144.827C225.22 146.57 224.534 148.242 223.313 149.474C222.093 150.707 220.437 151.399 218.711 151.399C216.985 151.399 215.329 150.707 214.109 149.474C212.888 148.242 212.202 146.57 212.202 144.827V136.498C212.219 135.79 212.349 135.089 212.589 134.423Z" stroke="#C9C9C9" strokeWidth="2" strokeLinecap="round" strokeLinejoin="round"/>
<path fill-rule="evenodd" clip-rule="evenodd" d="M187.343 75.8889H153.328C151.265 75.8889 150.034 77.518 150.567 79.5256L163.698 128.304C164.019 129.33 164.646 130.23 165.494 130.882C166.341 131.533 167.368 131.903 168.432 131.941H202.427C204.487 131.941 205.721 130.312 205.189 128.304L192.061 79.5256C191.742 78.5021 191.117 77.6033 190.273 76.9522C189.428 76.3012 188.405 75.9297 187.343 75.8889Z" fill="#066DC6"/>
<path fill-rule="evenodd" clip-rule="evenodd" d="M177.955 73.3794H158.65C158.435 73.3613 158.22 73.3984 158.023 73.4871C157.827 73.5758 157.656 73.7132 157.527 73.8866C157.397 74.0599 157.313 74.2636 157.282 74.4786C157.252 74.6936 157.276 74.9129 157.352 75.1161L158.291 78.4301C158.45 78.92 158.753 79.349 159.161 79.6594C159.569 79.9699 160.06 80.147 160.571 80.1668H179.876C180.09 80.1838 180.305 80.146 180.501 80.057C180.696 79.968 180.867 79.8306 180.996 79.6576C181.125 79.4845 181.209 79.2813 181.24 79.0668C181.272 78.8523 181.249 78.6333 181.174 78.4301L180.235 75.1161C180.075 74.6268 179.771 74.1985 179.363 73.8882C178.956 73.5779 178.465 73.4004 177.955 73.3794Z" fill="#3B4161"/>
<path fill-rule="evenodd" clip-rule="evenodd" d="M206.541 100.752C205.037 99.8741 203.44 99.1699 201.78 98.6532C199.386 96.6615 197.626 88.7946 196.991 88.2967C196.356 87.7988 194.23 88.1215 194.167 88.8663C193.891 91.5949 194.037 94.7815 196.431 97.6295C189.465 93.1563 188.936 91.1726 187.019 92.6703C185.102 94.168 184.412 101.473 186.057 104.493C190.585 112.826 202.498 113.953 206.143 114.009C207.05 110.045 207.05 105.253 206.541 100.752Z" fill="#F3AEB4"/>
<path d="M221.768 260.365L194.833 259.493" stroke="#737999" strokeWidth="1.7" strokeLinecap="round" strokeLinejoin="round"/>
<path d="M187.047 154.012L195.275 263.129" stroke="#737999" strokeWidth="1.7" strokeLinecap="round" strokeLinejoin="round"/>
<path d="M194.609 254.362L177.6 256.378" stroke="#737999" strokeWidth="1.7" strokeLinecap="round" strokeLinejoin="round"/>
<path d="M173.075 210.085C174.116 210.19 175.167 210.061 176.153 209.707C177.138 209.352 178.034 208.782 178.775 208.036C179.516 207.29 180.083 206.387 180.437 205.393C180.791 204.398 180.922 203.337 180.82 202.286C180.719 201.234 180.388 200.219 179.85 199.312C179.313 198.405 178.584 197.63 177.714 197.043C176.845 196.455 175.857 196.07 174.822 195.914C173.787 195.759 172.731 195.837 171.73 196.143" stroke="#737999" strokeWidth="1.7" strokeLinecap="round" strokeLinejoin="round"/>
<path d="M191.591 214.972C193.621 214.859 195.527 213.951 196.905 212.44C198.282 210.93 199.021 208.936 198.965 206.884C198.909 204.832 198.062 202.882 196.605 201.451C195.147 200.019 193.194 199.218 191.161 199.218C190.898 199.218 190.649 199.23 190.415 199.254" stroke="#737999" strokeWidth="1.7" strokeLinecap="round" strokeLinejoin="round"/>
<path d="M185.792 94.8372L191.887 99.7644" stroke="#A7464F" strokeWidth="3.41" strokeLinecap="round" strokeLinejoin="round"/>
<path d="M185.141 99.9357L192.881 106.15" stroke="#A7464F" strokeWidth="3.41" strokeLinecap="round" strokeLinejoin="round"/>
<path fill-rule="evenodd" clip-rule="evenodd" d="M151.154 99.7008C151.248 98.0597 150.759 94.415 149.315 90.9377C148.787 89.679 148.755 87.6077 150.613 87.6077C152.728 87.6077 155.556 91.8936 154.163 96.9962C152.771 102.099 151.016 102.019 151.154 99.7008Z" fill="#F3AEB4"/>
<path fill-rule="evenodd" clip-rule="evenodd" d="M157.703 90.0573C156.022 90.0573 150.914 100.262 150.95 101.501C150.985 102.74 151.518 104.624 152.31 104.528C153.103 104.433 159.738 95.9047 159.738 93.0089C159.738 91.332 158.93 90.0573 157.703 90.0573Z" fill="#F3AEB4"/>
<path fill-rule="evenodd" clip-rule="evenodd" d="M159.896 95.9205C157.801 95.9205 152.279 104.054 152.239 104.986C152.2 105.919 153.316 106.775 154.239 106.815C155.162 106.855 161.762 101.39 161.762 98.8482C161.773 97.2948 161.079 95.9205 159.896 95.9205Z" fill="#F3AEB4"/>
<path fill-rule="evenodd" clip-rule="evenodd" d="M157.963 111.133C157.055 111.089 154.531 108.81 154.531 107.018C154.531 106.313 156.294 104.489 157.178 104.544C158.061 104.6 159.864 108.03 159.829 108.902C159.793 109.774 159.15 111.176 157.963 111.133Z" fill="#F3AEB4"/>
<path d="M154.53 93.8294C152.72 96.8726 150.929 100.768 150.949 101.501" stroke="#A7464F" strokeWidth="3.41" strokeLinecap="round" strokeLinejoin="round"/>
<path d="M158.629 96.5181C156.136 98.4141 152.282 104.21 152.25 104.986" stroke="#A94B53" strokeWidth="3.41" strokeLinecap="round" strokeLinejoin="round"/>
<path fill-rule="evenodd" clip-rule="evenodd" d="M213.125 23.298C213.125 14.1804 205.902 6.77155 196.975 6.77155C188.049 6.77155 180.842 14.1645 180.842 23.2821C180.842 32.3998 188.08 39.8086 196.975 39.8086C205.871 39.8086 213.125 32.4197 213.125 23.298Z" fill="#F3AEB4"/>
<path fill-rule="evenodd" clip-rule="evenodd" d="M199.366 24.489C199.192 23.4374 198.577 22.6607 197.962 22.7643C197.346 22.8678 197.007 23.7999 197.173 24.8515C197.338 25.9031 197.962 26.6798 198.577 26.5802C199.192 26.4806 199.536 25.5446 199.366 24.489Z" fill="#B5545C"/>
<path fill-rule="evenodd" clip-rule="evenodd" d="M187.213 25.2777C187.051 24.2938 186.467 23.5689 185.903 23.6645C185.339 23.7601 185.011 24.6324 185.169 25.6163C185.327 26.6001 185.919 27.3211 186.483 27.2096C187.047 27.098 187.374 26.2616 187.213 25.2777Z" fill="#B5545C"/>
<path fill-rule="evenodd" clip-rule="evenodd" d="M210.659 30.5675C209.701 33.2601 207.291 47.2533 207.898 52.3359C205.374 56.1997 194.123 55.1242 190.77 51.8539C192.439 47.1497 192.502 43.7759 191.891 39.8086C191.311 36.0962 211.618 27.8828 210.659 30.5675Z" fill="#F3AEB4"/>
<path fill-rule="evenodd" clip-rule="evenodd" d="M190.589 6.37321C190.451 10.2967 193.997 14.0449 203.638 15.9051C202.581 18.6576 202.494 22.7961 207.76 23.541C213.902 24.4014 214.403 16.4787 214.403 16.4787L205.204 5.50487C205.204 5.50487 190.723 2.44175 190.589 6.37321Z" fill="black"/>
<path fill-rule="evenodd" clip-rule="evenodd" d="M193.484 3.61286C193.879 7.09821 189.906 15.5626 180.707 15.7936C174.167 15.7936 193.101 0.123539 193.484 3.61286Z" fill="black"/>
<path fill-rule="evenodd" clip-rule="evenodd" d="M204.155 39.223C205.038 38.0958 203.76 32.9574 202.368 30.6033C200.687 29.6035 194.727 30.436 191.654 27.7672C190.751 26.9705 190.266 27.5601 189.563 28.4324C188.329 29.962 184.617 30.7546 183.228 31.619C183.023 33.8496 185.051 38.9561 185.926 40.0993C187.299 41.9117 199.847 42.075 204.155 39.223Z" fill="white"/>
<path d="M201.556 31.0694C202.368 29.6991 205.919 23.5689 207.051 22.0154" stroke="white" strokeWidth="3.41" strokeLinecap="round" strokeLinejoin="round"/>
<path d="M203.457 38.8964C205.859 38.8964 211.571 31.3083 212.222 28.763" stroke="white" strokeWidth="3.41" strokeLinecap="round" strokeLinejoin="round"/>
<path fill-rule="evenodd" clip-rule="evenodd" d="M215.887 24.6523C215.887 23.6022 215.578 22.5756 215.001 21.7024C214.423 20.8293 213.602 20.1487 212.641 19.7468C211.68 19.345 210.623 19.2398 209.603 19.4447C208.583 19.6496 207.646 20.1553 206.91 20.8978C206.175 21.6404 205.674 22.5865 205.471 23.6165C205.268 24.6464 205.372 25.714 205.77 26.6843C206.168 27.6545 206.842 28.4837 207.707 29.0672C208.572 29.6506 209.588 29.962 210.628 29.962C212.023 29.962 213.36 29.4026 214.347 28.4068C215.333 27.4111 215.887 26.0605 215.887 24.6523Z" fill="#F3AEB4"/>
<path d="M182.66 288.451L218.107 288.204" stroke="#4C4FD9" strokeWidth="1.7" strokeLinecap="round" strokeLinejoin="round"/>
<path d="M181.902 290.208C182.877 287.097 186.687 281.002 201.555 280.855V279.345" stroke="#4C4FD9" strokeWidth="1.7" strokeLinecap="round" strokeLinejoin="round"/>
<path d="M218.107 284.077C217.227 284.077 216.355 284.253 215.541 284.593C214.728 284.933 213.988 285.432 213.366 286.061C212.743 286.689 212.249 287.436 211.912 288.258C211.575 289.079 211.401 289.96 211.401 290.849C211.401 291.028 211.401 291.203 211.401 291.379" stroke="#4C4FD9" strokeWidth="1.7" strokeLinecap="round" strokeLinejoin="round"/>
<path d="M197.626 284.292L195.886 281.249" stroke="#4C4FD9" strokeWidth="1.7" strokeLinecap="round" strokeLinejoin="round"/>
<path d="M193.532 285.009L192.049 282.022" stroke="#4C4FD9" strokeWidth="1.7" strokeLinecap="round" strokeLinejoin="round"/>
<path d="M189.658 285.794L188.368 283.376" stroke="#4C4FD9" strokeWidth="1.7" strokeLinecap="round" strokeLinejoin="round"/>
<path d="M196.703 140.067L178.281 139.485" stroke="#737999" strokeWidth="1.7" strokeLinecap="round" strokeLinejoin="round"/>
<path d="M218.249 278.083L201.555 277.808" stroke="#4C4FD9" strokeWidth="1.7" strokeLinecap="round" strokeLinejoin="round"/>
<path d="M201.24 276.438L184.073 276.298" stroke="#4C4FD9" strokeWidth="1.7" strokeLinecap="round" strokeLinejoin="round"/>
<path d="M164.949 287.917L183.26 287.519" stroke="#4C4FD9" strokeWidth="1.7" strokeLinecap="round" strokeLinejoin="round"/>
<path d="M178.566 280.046L180.144 282.878" stroke="#4C4FD9" strokeWidth="1.7" strokeLinecap="round" strokeLinejoin="round"/>
<path d="M175.935 280.68L177.513 283.516" stroke="#4C4FD9" strokeWidth="1.7" strokeLinecap="round" strokeLinejoin="round"/>
<path d="M173.126 281.46L174.704 284.296" stroke="#4C4FD9" strokeWidth="1.7" strokeLinecap="round" strokeLinejoin="round"/>
<path d="M225.184 166.978C231.101 169.479 235.543 165.022 235.579 160.604C235.614 156.187 233.882 129.83 233.646 127.201" stroke="#C9C9C9" strokeWidth="2" strokeLinecap="round" strokeLinejoin="round"/>
<path d="M163.123 69.3085C162.815 60.2904 172.219 56.1638 176.089 54.3952" stroke="#C9C9C9" strokeWidth="2" strokeLinecap="round" strokeLinejoin="round"/>
<path d="M164.96 159.33C164.223 154.522 164.171 141.513 165.418 136.55" stroke="#C9C9C9" strokeWidth="2" strokeLinecap="round" strokeLinejoin="round"/>
</g>
<path d="M115.471 123.19H91.827C91.6064 123.19 91.3947 123.278 91.2387 123.434C91.0826 123.59 90.995 123.802 90.995 124.022V135.672C90.995 135.892 91.0826 136.104 91.2387 136.26C91.3947 136.416 91.6064 136.504 91.827 136.504H115.471C115.691 136.504 115.903 136.416 116.059 136.26C116.215 136.104 116.303 135.892 116.303 135.672V124.022C116.303 123.802 116.215 123.59 116.059 123.434C115.903 123.278 115.691 123.19 115.471 123.19Z" stroke="#AADAF1" strokeWidth="2" strokeLinecap="round" strokeLinejoin="round"/>
<path d="M102.79 109.852H79.1588C78.9382 109.852 78.7265 109.94 78.5705 110.096C78.4144 110.252 78.3268 110.463 78.3268 110.684V122.333C78.3268 122.554 78.4144 122.766 78.5705 122.922C78.7265 123.078 78.9382 123.165 79.1588 123.165H102.79C103.011 123.165 103.222 123.078 103.378 122.922C103.534 122.766 103.622 122.554 103.622 122.333V110.684C103.622 110.463 103.534 110.252 103.378 110.096C103.222 109.94 103.011 109.852 102.79 109.852Z" stroke="#AADAF1" strokeWidth="2" strokeLinecap="round" strokeLinejoin="round"/>
<path d="M90.1376 123.19H66.4899C66.2692 123.19 66.0575 123.278 65.9015 123.434C65.7454 123.59 65.6578 123.802 65.6578 124.022V135.672C65.6578 135.892 65.7454 136.104 65.9015 136.26C66.0575 136.416 66.2692 136.504 66.4899 136.504H90.1376C90.3583 136.504 90.57 136.416 90.726 136.26C90.8821 136.104 90.9697 135.892 90.9697 135.672V124.022C90.9697 123.802 90.8821 123.59 90.726 123.434C90.57 123.278 90.3583 123.19 90.1376 123.19Z" stroke="#AADAF1" strokeWidth="2" strokeLinecap="round" strokeLinejoin="round"/>
<path d="M127.752 136.554H104.092C103.871 136.554 103.659 136.641 103.503 136.797C103.347 136.953 103.26 137.165 103.26 137.386V149.035C103.26 149.256 103.347 149.467 103.503 149.623C103.659 149.779 103.871 149.867 104.092 149.867H127.752C127.973 149.867 128.184 149.779 128.34 149.623C128.496 149.467 128.584 149.256 128.584 149.035V137.386C128.584 137.165 128.496 136.953 128.34 136.797C128.184 136.641 127.973 136.554 127.752 136.554V136.554Z" stroke="#AADAF1" strokeWidth="2" strokeLinecap="round" strokeLinejoin="round"/>
<path fill-rule="evenodd" clip-rule="evenodd" d="M82.0625 271.189H69.7518V283.283H82.0625V271.189Z" fill="#F77F89"/>
<path fill-rule="evenodd" clip-rule="evenodd" d="M35.8066 270.839H23.4918V282.929H35.8066V270.839Z" fill="#F77F89"/>
<path fill-rule="evenodd" clip-rule="evenodd" d="M103.897 36.9449L95.7173 35.2308C95.1547 35.1109 94.5674 35.2186 94.0841 35.5305C93.6007 35.8423 93.2605 36.3329 93.1378 36.895L89.772 52.4965C89.7136 52.7727 89.7104 53.0578 89.7625 53.3353C89.8146 53.6128 89.921 53.8773 90.0756 54.1135C90.2303 54.3497 90.4301 54.553 90.6636 54.7118C90.8971 54.8705 91.1597 54.9816 91.4362 55.0385L99.6073 56.7568C100.17 56.8767 100.757 56.7689 101.24 56.4571C101.724 56.1452 102.064 55.6546 102.187 55.0926L105.569 39.4911C105.627 39.214 105.63 38.9281 105.578 38.6499C105.525 38.3717 105.418 38.1066 105.263 37.8699C105.107 37.6333 104.907 37.4297 104.672 37.2709C104.438 37.1122 104.174 37.0014 103.897 36.9449Z" fill="#9B9B9B"/>
<path fill-rule="evenodd" clip-rule="evenodd" d="M101.245 62.0822C102.252 60.4888 109.837 45.6819 107.486 44.4254C105.135 43.169 103.825 44.4795 103.251 45.84C102.003 44.5128 99.4273 42.9277 98.3622 44.0843C97.1141 45.4115 98.1501 47.5333 99.0861 48.3612C98.0169 47.9868 97.0309 47.7663 96.1739 48.9645C95.0797 50.4539 96.4859 54.7183 97.2348 55.359L93.2824 59.1034C93.2824 59.1034 100.243 63.659 101.245 62.0822Z" fill="#F77F89"/>
<path fill-rule="evenodd" clip-rule="evenodd" d="M33.7852 153.341C33.7852 146.867 27.3199 141.621 19.3402 141.621C11.3605 141.621 4.89941 146.867 4.89941 153.341C4.89941 159.814 11.3647 165.06 19.3402 165.06C27.3157 165.06 33.7852 159.814 33.7852 153.341Z" fill="#BF9111"/>
<path fill-rule="evenodd" clip-rule="evenodd" d="M46.2081 19.646C35.0874 19.646 29.5665 29.7641 29.034 33.2796C28.5014 36.7952 29.1879 44.2007 28.2019 47.1671C25.4643 55.2383 15.496 59.6026 15.496 67.7695C15.496 86.666 36.298 81.1951 42.626 80.9538C48.954 80.7125 65.6123 80.18 65.6123 68.8428C65.6123 64.333 62.5461 64.333 62.492 58.4668C62.4462 53.5076 65.2171 52.1055 65.2171 40.2234C65.1879 35.364 58.5937 19.5877 46.2081 19.646Z" fill="black"/>
<path fill-rule="evenodd" clip-rule="evenodd" d="M61.8049 117.948C62.1044 114.72 64.0515 82.1687 54.2579 68.8554C54.5832 67.7775 54.8238 66.6758 54.9776 65.5604C58.5681 68.1481 71.9937 81.786 73.6995 84.0534C75.2513 82.0814 91.972 58.6499 92.8041 58.3712C93.6362 58.0924 101.807 61.8867 101.986 62.7562C102.165 63.6258 82.0827 102.351 77.0236 103.982C74.9018 104.664 71.9063 102.571 70.9702 102.268C70.8413 104.348 89.5756 158.849 71.6942 159.265C61.0643 146.006 61.5095 121.16 61.8049 117.948Z" fill="#F7D167"/>
<path fill-rule="evenodd" clip-rule="evenodd" d="M66.2489 127.837L91.1406 272.703L69.1487 272.611L52.8149 203.316L44.6439 273.781L23.5506 273.51L22.1069 128.021L66.2489 127.837Z" fill="#3B4161"/>
<path fill-rule="evenodd" clip-rule="evenodd" d="M33.4058 131.295C35.6899 131.781 64.3925 131.199 67.0136 129.739C69.6347 128.278 69.0938 123.548 62.6327 121.95C64.9209 121.38 69.7803 118.593 63.2276 117.615C62.0586 105.904 67.1342 63.0306 46.9521 62.2817C32.686 60.1807 30.3104 72.7077 30.3104 72.7077C30.3104 72.7077 31.1217 130.808 33.4058 131.295Z" fill="#0785F3"/>
<path fill-rule="evenodd" clip-rule="evenodd" d="M46.9566 25.0545C54.6242 25.0545 60.8398 32.2811 60.8398 41.1927C60.8398 50.1043 54.6242 57.3143 46.9566 57.3143C43.7151 57.2636 40.617 55.9693 38.3029 53.6989C38.59 49.655 38.6274 45.5487 38.0033 43.4019C37.0381 40.7393 37.3876 41.8542 38.3778 41.7378L37.5083 40.9972C37.5083 39.1458 37.2004 40.4106 35.349 40.4106L33.1523 40.3191C33.5309 31.8235 39.551 25.0545 46.9566 25.0545Z" fill="#F77F89"/>
<path fill-rule="evenodd" clip-rule="evenodd" d="M62.8083 38.3678C59.8377 37.5856 57.5121 36.1503 54.9493 31.5863C51.8955 34.3946 49.2994 34.4486 44.7646 33.5583C45.0308 35.7758 45.2472 38.2845 42.3307 38.5841C39.4143 38.8836 30.7939 42.6363 30.7939 42.6363L31.21 32.8011L38.8193 24.2723L47.706 22.6497L55.54 26.3234L60.4327 32.6722C60.4327 32.6722 65.7622 39.1291 62.8083 38.3678Z" fill="black"/>
<path fill-rule="evenodd" clip-rule="evenodd" d="M43.1211 39.6493C43.1211 38.4526 42.7664 37.2827 42.1018 36.2875C41.4372 35.2923 40.4925 34.5164 39.3871 34.0579C38.2817 33.5993 37.0652 33.4787 35.8913 33.7113C34.7174 33.9439 33.6388 34.5191 32.7917 35.3645C31.9446 36.2098 31.3671 37.2873 31.1321 38.4607C30.8972 39.6341 31.0153 40.8508 31.4715 41.9572C31.9278 43.0635 32.7017 44.0098 33.6955 44.6764C34.6894 45.3431 35.8585 45.7002 37.0552 45.7027C37.8514 45.7049 38.6401 45.5499 39.3762 45.2466C40.1123 44.9433 40.7814 44.4977 41.3449 43.9353C41.9084 43.3729 42.3554 42.7048 42.6602 41.9693C42.965 41.2339 43.1216 40.4454 43.1211 39.6493Z" fill="#F77F89"/>
<path fill-rule="evenodd" clip-rule="evenodd" d="M49.0618 55.0968C48.4752 57.955 48.9536 61.6578 49.6484 64.2996C47.5974 65.4729 39.3847 65.8764 36.8885 64.0791C37.8412 60.5969 39.2932 47.8535 37.9993 43.406C41.2569 43.1231 49.6484 52.2344 49.0618 55.0968Z" fill="#F77F89"/>
<path fill-rule="evenodd" clip-rule="evenodd" d="M33.053 142.794C33.948 144.267 34.9201 145.692 35.9653 147.063C35.9653 147.063 38.6987 146.197 39.4475 147.2C40.1964 148.203 45.1931 154.522 42.7384 156.673C40.2838 158.824 37.5296 153.453 36.7557 152.754C34.2078 155.075 31.8054 157.551 29.5624 160.168C29.5624 160.168 29.5832 156.386 29.1672 155.055C28.7511 153.724 26.1883 150.171 25.3313 149.23C24.4742 148.29 31.6468 140.431 33.053 142.794Z" fill="#F77F89"/>
<path fill-rule="evenodd" clip-rule="evenodd" d="M36.0106 64.3203C37.3129 67.607 38.8688 70.8189 42.9003 73.1737C43.1291 76.8556 39.6926 127.326 36.8427 132.551C35.6896 134.599 34.2572 136.477 32.5866 138.13C33.4645 140.485 34.2508 142.619 33.9263 143.302C33.5102 144.192 26.2836 150.374 25.3059 150.104C24.6652 149.929 22.8471 148.049 21.3161 146.359C14.2434 150.437 7.71569 153.341 7.58672 157.147C7.58672 159.868 8.502 160.721 9.62115 162.032C8.00691 161.233 4.13357 157.152 4.05037 152.13C3.94635 145.798 10.0497 134.723 11.1231 131.915C9.13023 129.651 2.15738 120.062 0.514015 111.633C4.73267 95.2447 21.3951 64.7738 36.0106 64.3203Z" fill="#F7D167"/>
<path d="M30.7899 94.3463C29.3587 96.6221 19.4195 111.62 19.4195 111.62C19.4195 111.62 28.7347 130.729 31.959 137.386" stroke="#F7981D" strokeWidth="2" strokeLinecap="round" strokeLinejoin="round"/>
<path d="M4.99949 121.526C6.75067 120.674 8.2081 119.32 9.18545 117.636C10.1628 115.951 10.6157 114.014 10.4861 112.071C10.3566 110.128 9.65056 108.268 8.45829 106.728C7.26602 105.189 5.64169 104.04 3.79296 103.428" stroke="#F7981D" strokeWidth="2" strokeLinecap="round" strokeLinejoin="round"/>
<path d="M15.9707 108.288L19.4238 111.616" stroke="#F7981D" strokeWidth="2" strokeLinecap="round" strokeLinejoin="round"/>
<path d="M15.1594 113.584L19.4238 111.371" stroke="#F7981D" strokeWidth="2" strokeLinecap="round" strokeLinejoin="round"/>
<path d="M31.834 139.628C30.8688 140.727 24.7613 145.066 23.0971 145.773" stroke="#F7981D" strokeWidth="2" strokeLinecap="round" strokeLinejoin="round"/>
<path d="M82.6191 97.6039C81.7048 96.6527 80.5271 95.9965 79.2371 95.7194C77.9471 95.4424 76.6038 95.5571 75.3795 96.049C74.1553 96.5408 73.1059 97.3873 72.3662 98.4798C71.6264 99.5723 71.2301 100.861 71.2279 102.18V102.334" stroke="#F7981D" strokeWidth="2" strokeLinecap="round" strokeLinejoin="round"/>
<path d="M73.721 84.0451L77.1367 89.125" stroke="#F7981D" strokeWidth="2" strokeLinecap="round" strokeLinejoin="round"/>
<path d="M70.6748 88.0391L73.6162 83.9577" stroke="#F7981D" strokeWidth="2" strokeLinecap="round" strokeLinejoin="round"/>
<path d="M90.2207 61.5208L99.7646 67.5991" stroke="#F7981D" strokeWidth="2" strokeLinecap="round" strokeLinejoin="round"/>
<path d="M52.8389 203.382C53.438 199.322 55.7179 164.562 54.1119 152.463" stroke="#737999" strokeWidth="2" strokeLinecap="round" strokeLinejoin="round"/>
<path d="M29.3453 212.689L22.9341 210.135L29.832 205.833" stroke="#737999" strokeWidth="2" strokeLinecap="round" strokeLinejoin="round"/>
<path d="M61.8047 213.875L55.0773 212.88L59.4541 208.179" stroke="#737999" strokeWidth="2" strokeLinecap="round" strokeLinejoin="round"/>
<path d="M67.8125 136.936C65.7323 137.219 45.7623 138.322 32.865 137.698" stroke="#737999" strokeWidth="2" strokeLinecap="round" strokeLinejoin="round"/>
<path d="M89.7344 264.441L67.0851 263.8" stroke="#737999" strokeWidth="2" strokeLinecap="round" strokeLinejoin="round"/>
<path d="M45.5586 266.013L23.4793 265.385" stroke="#737999" strokeWidth="2" strokeLinecap="round" strokeLinejoin="round"/>
<path d="M36.8262 152.812L27.5984 162.128" stroke="#737999" strokeWidth="2" strokeLinecap="round" strokeLinejoin="round"/>
<path d="M42.4092 147.179L40.6826 148.918" stroke="#737999" strokeWidth="2" strokeLinecap="round" strokeLinejoin="round"/>
<path d="M38.1244 273.697L44.5439 137.872" stroke="#737999" strokeWidth="2" strokeLinecap="round" strokeLinejoin="round"/>
<path d="M54.3116 180.629L76.5781 272.641" stroke="#737999" strokeWidth="2" strokeLinecap="round" strokeLinejoin="round"/>
<path fill-rule="evenodd" clip-rule="evenodd" d="M49.6484 41.1346C49.6484 40.3025 49.3073 39.6493 48.8829 39.6493C48.4586 39.6493 48.1132 40.315 48.1132 41.1346C48.1132 41.9542 48.4586 42.6157 48.8829 42.6157C49.3073 42.6157 49.6484 41.95 49.6484 41.1346Z" fill="#B5545C"/>
<path fill-rule="evenodd" clip-rule="evenodd" d="M58.4443 41.1346C58.4443 40.3025 58.099 39.6493 57.6747 39.6493C57.2503 39.6493 56.9091 40.315 56.9091 41.1346C56.9091 41.9542 57.2503 42.6157 57.6747 42.6157C58.099 42.6157 58.4443 41.95 58.4443 41.1346Z" fill="#B5545C"/>
<path d="M54.0581 41.4093C53.9333 42.5659 54.183 45.1537 55.0566 46.2853" stroke="#B5545C" strokeWidth="2" strokeLinecap="round" strokeLinejoin="round"/>
<path d="M48.396 48.5817C48.3574 48.734 48.3379 48.8905 48.3377 49.0476C48.3359 49.3466 48.4072 49.6415 48.5454 49.9066C48.6835 50.1717 48.8844 50.3991 49.1305 50.5689C49.3765 50.7386 49.6604 50.8457 49.9573 50.8808C50.2542 50.9159 50.5551 50.8778 50.834 50.77" stroke="#B5545C" strokeWidth="2" strokeLinecap="round" strokeLinejoin="round"/>
<path d="M48.8662 57.148C48.2348 57.2498 47.5962 57.3013 46.9566 57.3019C45.3037 57.2997 43.6695 56.951 42.1596 56.2784" stroke="#B5545C" strokeWidth="2" strokeLinecap="round" strokeLinejoin="round"/>
<path d="M40.7988 38.9213C40.6843 38.1814 40.3599 37.4899 39.8643 36.9287C39.3687 36.3676 38.7225 35.9603 38.0025 35.7552C37.2824 35.5501 36.5187 35.5557 35.8017 35.7715C35.0848 35.9873 34.4448 36.4041 33.9575 36.9725C33.4703 37.541 33.1563 38.2372 33.0527 38.9787C32.9491 39.7202 33.0603 40.4759 33.3731 41.1561C33.686 41.8363 34.1873 42.4125 34.8176 42.8165C35.448 43.2205 36.1809 43.4352 36.9296 43.4353C37.3041 43.4338 37.6765 43.3806 38.0363 43.2772" stroke="#B5545C" strokeWidth="2" strokeLinecap="round" strokeLinejoin="round"/>
<path d="M11.9017 132.763L20.5762 145.245" stroke="#F7981D" strokeWidth="2" strokeLinecap="round" strokeLinejoin="round"/>
<path fill-rule="evenodd" clip-rule="evenodd" d="M35.8061 278.303L23.4913 278.199L23.6119 295.773L61.6797 295.531C61.5341 291.916 54.5321 285.492 45.9949 284.219C37.4578 282.946 35.8061 279.452 35.8061 278.303Z" fill="#9B9B9B"/>
<path d="M54.7783 287.477C53.2345 288.804 51.8882 290.345 50.7802 292.053" stroke="#4E4242" strokeWidth="2" strokeLinecap="round" strokeLinejoin="round"/>
<path d="M48.9961 285.189C47.4501 286.514 46.1035 288.055 44.9979 289.765" stroke="#4E4242" strokeWidth="2" strokeLinecap="round" strokeLinejoin="round"/>
<path d="M45.8751 284.827C56.6381 273.206 36.0773 270.236 45.8377 284.827" stroke="#4E4242" strokeWidth="2" strokeLinecap="round" strokeLinejoin="round"/>
<path d="M45.791 284.806C34.3 271.23 27.7473 293.721 45.791 284.847" stroke="#4E4242" strokeWidth="2" strokeLinecap="round" strokeLinejoin="round"/>
<path d="M23.5002 281.248H37.708" stroke="#4E4242" strokeWidth="2" strokeLinecap="round" strokeLinejoin="round"/>
<path d="M23.6003 295.723L61.5059 295.531" stroke="#4E4242" strokeWidth="2" strokeLinecap="round" strokeLinejoin="round"/>
<path fill-rule="evenodd" clip-rule="evenodd" d="M82.0619 278.657L69.7513 278.553L69.8719 296.126L107.936 295.898C107.79 292.282 100.788 285.858 92.2508 284.585C83.7136 283.312 82.0619 279.805 82.0619 278.657Z" fill="#9B9B9B"/>
<path d="M101.046 287.83C99.5021 289.157 98.1558 290.698 97.0477 292.406" stroke="#4E4242" strokeWidth="2" strokeLinecap="round" strokeLinejoin="round"/>
<path d="M95.2637 285.542C93.7178 286.867 92.3712 288.409 91.2655 290.119" stroke="#4E4242" strokeWidth="2" strokeLinecap="round" strokeLinejoin="round"/>
<path d="M92.1427 285.176C102.906 273.56 82.3449 270.589 92.1052 285.176" stroke="#4E4242" strokeWidth="2" strokeLinecap="round" strokeLinejoin="round"/>
<path d="M92.0645 285.159C80.5734 271.58 74.0249 294.075 92.0645 285.201" stroke="#4E4242" strokeWidth="2" strokeLinecap="round" strokeLinejoin="round"/>
<path d="M69.7727 281.602H83.9805" stroke="#4E4242" strokeWidth="2" strokeLinecap="round" strokeLinejoin="round"/>
<path d="M69.8716 296.076L107.781 295.897" stroke="#4E4242" strokeWidth="2" strokeLinecap="round" strokeLinejoin="round"/>
<path fill-rule="evenodd" clip-rule="evenodd" d="M105.51 53.3746C106.068 52.0516 105.822 47.0383 102.781 45.3741L105.51 53.3746Z" fill="#F77F89"/>
<path d="M105.51 53.3746C106.068 52.0516 105.822 47.0383 102.781 45.3741" stroke="#B5545C" strokeWidth="2" strokeLinecap="round" strokeLinejoin="round"/>
<path fill-rule="evenodd" clip-rule="evenodd" d="M101.417 54.9763C101.758 53.3121 100.867 49.8132 99.0576 48.5776L101.417 54.9763Z" fill="#F77F89"/>
<path d="M101.417 54.9763C101.758 53.3121 100.867 49.8132 99.0576 48.5776" stroke="#B5545C" strokeWidth="2" strokeLinecap="round" strokeLinejoin="round"/>
<defs>
<clipPath id="clip0_0_1">
<rect width="89" height="292" fill="white" transform="matrix(-1 0 0 1 238 0)"/>
</clipPath>
</defs>
</svg>
