<svg width="13" height="12" viewBox="0 0 13 12" fill="none" xmlns="http://www.w3.org/2000/svg">
<path fill-rule="evenodd" clip-rule="evenodd" d="M-0.000472665 6.00009C-0.000472665 6.22387 0.0851291 6.43848 0.237502 6.59671C0.389876 6.75494 0.596539 6.84384 0.812027 6.84384H10.2257L6.73678 10.4652C6.66123 10.5437 6.60131 10.6368 6.56042 10.7393C6.51954 10.8418 6.4985 10.9516 6.4985 11.0626C6.4985 11.1735 6.51954 11.2834 6.56042 11.3859C6.60131 11.4884 6.66123 11.5815 6.73678 11.66C6.81232 11.7384 6.902 11.8006 7.0007 11.8431C7.0994 11.8856 7.20519 11.9074 7.31203 11.9074C7.41886 11.9074 7.52465 11.8856 7.62335 11.8431C7.72205 11.8006 7.81173 11.7384 7.88728 11.66L12.7623 6.59746C12.8379 6.51909 12.898 6.42598 12.9389 6.32347C12.9799 6.22096 13.001 6.11107 13.001 6.00009C13.001 5.88911 12.9799 5.77921 12.9389 5.67671C12.898 5.5742 12.8379 5.48109 12.7623 5.40271L7.88728 0.340214C7.73471 0.181781 7.52779 0.0927734 7.31203 0.0927734C7.09626 0.0927734 6.88934 0.181781 6.73678 0.340214C6.58421 0.498648 6.4985 0.71353 6.4985 0.93759C6.4985 1.16165 6.58421 1.37653 6.73678 1.53496L10.2257 5.15634H0.812027C0.596539 5.15634 0.389876 5.24523 0.237502 5.40347C0.0851291 5.5617 -0.000472665 5.77631 -0.000472665 6.00009Z" fill="white"/>
</svg>
