<svg width="91" height="299" viewBox="0 0 91 299" fill="none" xmlns="http://www.w3.org/2000/svg">
<path fill-rule="evenodd" clip-rule="evenodd" d="M35.2193 271.089L38.7364 282.783L52.7966 283.297L53.7363 265.714L35.2193 271.089Z" fill="#F3AEB4"/>
<path fill-rule="evenodd" clip-rule="evenodd" d="M53.4141 281.274V296.638L15.3959 297.507C15.3959 297.507 16.4768 286.527 35.9175 286.348C35.8449 281.523 35.8368 281.274 35.8368 281.274H53.4141Z" fill="#066DC6"/>
<path fill-rule="evenodd" clip-rule="evenodd" d="M70.7539 273.3L70.4917 284.814L55.8104 285.332L51.9949 272.517L70.7539 273.3Z" fill="#F3AEB4"/>
<path fill-rule="evenodd" clip-rule="evenodd" d="M48.5499 0C32.5738 0 29.2665 15.3483 29.2584 20.9851C29.2584 26.3568 30.295 27.1766 30.2587 32.6217C30.2345 36.7576 29.0487 39.6535 29.1576 42.0028C29.7868 54.239 46.146 57.7671 50.8166 57.8365C55.4872 57.9058 75.8232 53.925 75.8232 44.4134C75.8232 37.7773 71.6487 27.1644 71.7617 19.7941C72.0117 4.48661 59.3552 0 48.5499 0Z" fill="black"/>
<path fill-rule="evenodd" clip-rule="evenodd" d="M70.834 282.771L70.6162 298.147L33.2958 299C33.2958 299 33.2958 287.787 53.7367 287.579V282.771H70.834Z" fill="#066DC6"/>
<path fill-rule="evenodd" clip-rule="evenodd" d="M74.4961 167.432L74.3993 275.001L47.7309 274.413L47.3276 269.433L30.1295 271.779L19.2153 159.613L25.108 130.891L64.0578 129.814L74.4961 167.432Z" fill="#3B4161"/>
<path fill-rule="evenodd" clip-rule="evenodd" d="M43.0764 213.139L27.0842 240.315L30.1213 271.493L47.3477 269.454L43.0764 213.139Z" fill="#15192C"/>
<path fill-rule="evenodd" clip-rule="evenodd" d="M54.2967 139.493H25.9666L22.1309 97.1677L27.2492 64.7336L36.9292 55.3077L46.6334 50.9271L64.1582 53.6354L54.2967 139.493Z" fill="#F7981D"/>
<path d="M65.4375 274.805L65.252 160.384" stroke="#737999" strokeWidth="1.7" strokeLinecap="round" strokeLinejoin="round"/>
<path fill-rule="evenodd" clip-rule="evenodd" d="M59.1657 50.4049C65.7884 50.5885 85.5638 57.8486 88.4517 65.2148C90.6458 70.8027 92.1503 121.363 86.9957 123.83C86.6648 123.992 86.3189 124.121 85.9631 124.214C86.2737 125.764 89.2422 161.652 88.488 164.638C87.7338 167.624 85.7534 172.143 82.8857 171.98C71.79 171.307 51.4056 156.579 49.3808 154.176C49.0703 149.624 48.2112 132.526 48.2112 132.526L49.9778 81.7949L60.0893 53.8392C60.0893 53.8392 52.543 50.2214 59.1657 50.4049Z" fill="white"/>
<path fill-rule="evenodd" clip-rule="evenodd" d="M44.7344 50.0869C33.3483 51.5186 17.2755 60.4469 15.2064 64.5134C13.464 67.9314 14.3473 112.182 14.3473 112.182C14.3473 112.182 20.8006 121.134 17.8926 134.011C15.2225 145.888 14.432 161.922 17.2311 164.92C21.8452 162.558 27.7783 153.091 28.8471 150.758C29.9159 148.425 30.1942 135.226 31.017 132.404C31.8398 129.581 35.5222 79.6129 35.5222 79.6129C35.5222 79.6129 37.2404 59.4272 44.7344 50.0869Z" fill="white"/>
<path d="M73.3994 54.3369C67.6681 64.9049 56.0561 76.9494 50.0706 81.5462" stroke="#C9C9C9" strokeWidth="2" strokeLinecap="round" strokeLinejoin="round"/>
<path d="M38.9707 51.2983C33.8685 58.2566 32.5537 70.0809 36.5507 82.0887" stroke="#C9C9C9" strokeWidth="2" strokeLinecap="round" strokeLinejoin="round"/>
<path d="M67.6074 83.8588C67.6074 82.9503 67.341 82.0622 66.8418 81.3069C66.3425 80.5515 65.633 79.9629 64.8029 79.6154C63.9728 79.2679 63.0595 79.1772 62.1784 79.3547C61.2973 79.5323 60.4881 79.9701 59.8531 80.6128C59.2181 81.2555 58.7859 82.0742 58.6111 82.9653C58.4364 83.8565 58.5269 84.7801 58.8712 85.6192C59.2156 86.4583 59.7983 87.1753 60.5457 87.6795C61.2931 88.1836 62.1715 88.4523 63.0699 88.4515C64.2737 88.4504 65.4278 87.966 66.2787 87.1049C67.1295 86.2437 67.6074 85.0762 67.6074 83.8588V83.8588Z" stroke="#353823" strokeWidth="3.41" strokeLinecap="round" strokeLinejoin="round"/>
<path fill-rule="evenodd" clip-rule="evenodd" d="M65.3965 83.8588C65.3965 83.395 65.2605 82.9415 65.0056 82.5559C64.7508 82.1702 64.3886 81.8696 63.9648 81.6921C63.5411 81.5146 63.0747 81.4681 62.6249 81.5586C62.175 81.6491 61.7618 81.8725 61.4374 82.2005C61.1131 82.5285 60.8922 82.9463 60.8027 83.4013C60.7132 83.8562 60.7592 84.3278 60.9347 84.7563C61.1102 85.1849 61.4075 85.5512 61.7889 85.8089C62.1702 86.0666 62.6186 86.2041 63.0773 86.2041C63.6924 86.2041 64.2823 85.957 64.7172 85.5172C65.1521 85.0774 65.3965 84.4808 65.3965 83.8588V83.8588Z" fill="#353823"/>
<path d="M64.2957 79.4334C67.361 68.0496 67.5586 52.2078 59.6453 49.3527" stroke="#353823" strokeWidth="3.41" strokeLinecap="round" strokeLinejoin="round"/>
<path d="M45.8271 47.4154C41.3139 49.3487 37.0143 58.2648 36.006 65.9002" stroke="#353823" strokeWidth="3.41" strokeLinecap="round" strokeLinejoin="round"/>
<path d="M40.8783 80.241C42.3222 73.1848 40.1442 66.7812 36.0141 65.9001C31.8839 65.0191 27.3626 70.0523 25.9307 77.1085C24.4989 84.1647 26.6648 90.5684 30.7949 91.4453C34.9251 92.3222 39.4343 87.285 40.8783 80.241Z" stroke="#353823" strokeWidth="3.41" strokeLinecap="round" strokeLinejoin="round"/>
<path d="M68.9666 69.1426L70.709 103.449" stroke="#C9C9C9" strokeWidth="2" strokeLinecap="round" strokeLinejoin="round"/>
<path d="M73.8711 70.1543L69.3417 76.5416" stroke="#C9C9C9" strokeWidth="2" strokeLinecap="round" strokeLinejoin="round"/>
<path fill-rule="evenodd" clip-rule="evenodd" d="M58.7335 100.72L76.1494 104.934Z" fill="#606060"/>
<path d="M58.7335 100.72L76.1494 104.934" stroke="#C9C9C9" strokeWidth="2" strokeLinecap="round" strokeLinejoin="round"/>
<path d="M75.2705 100.223L70.8338 103.649" stroke="#C9C9C9" strokeWidth="2" strokeLinecap="round" strokeLinejoin="round"/>
<path d="M58.0725 120.588C65.397 123.569 82.7968 127.134 86.0839 124.181C90.4803 120.229 91.7306 79.4375 89.5244 68.6166C88.2377 62.319 81.74 58.2647 78.352 56.6332" stroke="#C9C9C9" strokeWidth="2" strokeLinecap="round" strokeLinejoin="round"/>
<path d="M63.3076 122.334C65.3969 119.654 66.1955 106.292 65.1871 102.282" stroke="#C9C9C9" strokeWidth="2" strokeLinecap="round" strokeLinejoin="round"/>
<path fill-rule="evenodd" clip-rule="evenodd" d="M63.0781 104.893C63.0789 104.68 63.0171 104.471 62.9006 104.294C62.7841 104.116 62.6181 103.977 62.4236 103.895C62.2291 103.813 62.0149 103.791 61.8081 103.832C61.6013 103.873 61.4111 103.976 61.2618 104.126C61.1125 104.276 61.0107 104.468 60.9693 104.677C60.9279 104.886 60.9487 105.103 61.0292 105.3C61.1097 105.497 61.2461 105.665 61.4213 105.784C61.5965 105.902 61.8025 105.966 62.0133 105.966C62.153 105.966 62.2913 105.939 62.4205 105.885C62.5497 105.831 62.6671 105.753 62.766 105.653C62.8649 105.553 62.9434 105.435 62.997 105.304C63.0505 105.174 63.0781 105.034 63.0781 104.893V104.893Z" fill="#C9C9C9"/>
<path d="M65.0179 137.645C67.3338 138.55 69.7953 139.013 72.2779 139.012C74.12 138.993 75.9508 138.719 77.7189 138.196C77.8517 138.713 77.9234 139.244 77.9326 139.778V148.299C77.9326 150.084 77.2315 151.796 75.9834 153.058C74.7354 154.32 73.0426 155.029 71.2776 155.029C69.5126 155.029 67.8199 154.32 66.5718 153.058C65.3238 151.796 64.6226 150.084 64.6226 148.299V139.77C64.6396 139.045 64.7731 138.327 65.0179 137.645Z" stroke="#C9C9C9" strokeWidth="2" strokeLinecap="round" strokeLinejoin="round"/>
<path fill-rule="evenodd" clip-rule="evenodd" d="M39.2048 77.7081H4.42535C2.31592 77.7081 1.05752 79.3763 1.60202 81.432L15.029 131.38C15.3566 132.43 15.9978 133.352 16.8644 134.019C17.7311 134.686 18.7807 135.065 19.869 135.104H54.6282C56.7336 135.104 57.9961 133.436 57.4516 131.38L44.0286 81.432C43.7025 80.384 43.0639 79.4636 42.2003 78.797C41.3367 78.1303 40.2904 77.75 39.2048 77.7081V77.7081Z" fill="#066DC6"/>
<path fill-rule="evenodd" clip-rule="evenodd" d="M29.6053 75.1385H9.86616C9.64699 75.12 9.42677 75.1579 9.22601 75.2487C9.02526 75.3395 8.8505 75.4803 8.71803 75.6578C8.58556 75.8353 8.49969 76.0439 8.46842 76.264C8.43715 76.4842 8.4615 76.7087 8.5392 76.9168L9.49913 80.3103C9.66176 80.8119 9.97232 81.2512 10.3891 81.5691C10.8058 81.887 11.3088 82.0683 11.8304 82.0886H31.5695C31.7884 82.106 32.008 82.0673 32.2082 81.9762C32.4084 81.885 32.5826 81.7444 32.7149 81.5672C32.8471 81.3899 32.933 81.1819 32.9648 80.9622C32.9965 80.7426 32.973 80.5184 32.8965 80.3103L31.9365 76.9168C31.7729 76.4158 31.4621 75.9772 31.0456 75.6594C30.629 75.3417 30.1266 75.16 29.6053 75.1385Z" fill="#3B4161"/>
<path fill-rule="evenodd" clip-rule="evenodd" d="M58.8354 103.168C57.2977 102.268 55.6646 101.547 53.9671 101.018C51.5189 98.9788 49.72 90.9233 49.0707 90.4134C48.4213 89.9036 46.2473 90.234 46.1828 90.9967C45.9005 93.7906 46.0497 97.0536 48.4979 99.9699C41.3751 95.3895 40.8346 93.3583 38.8744 94.8919C36.9142 96.4255 36.2084 103.906 37.8903 106.998C42.5205 115.53 54.7012 116.685 58.428 116.742C59.3557 112.683 59.3557 107.777 58.8354 103.168Z" fill="#F3AEB4"/>
<path d="M74.4033 266.607L46.8637 265.714" stroke="#737999" strokeWidth="1.7" strokeLinecap="round" strokeLinejoin="round"/>
<path d="M38.9019 157.704L47.3154 269.437" stroke="#737999" strokeWidth="1.7" strokeLinecap="round" strokeLinejoin="round"/>
<path d="M46.6338 260.46L29.2421 262.524" stroke="#737999" strokeWidth="1.7" strokeLinecap="round" strokeLinejoin="round"/>
<path d="M24.6158 215.121C25.6802 215.229 26.7551 215.097 27.7629 214.734C28.7707 214.371 29.6864 213.787 30.4439 213.023C31.2014 212.259 31.7819 211.335 32.1436 210.317C32.5052 209.298 32.639 208.212 32.5353 207.135C32.4315 206.058 32.0929 205.018 31.5437 204.09C30.9945 203.162 30.2485 202.368 29.3594 201.766C28.4703 201.165 27.4603 200.77 26.4022 200.611C25.3441 200.452 24.2642 200.532 23.2404 200.845" stroke="#737999" strokeWidth="1.7" strokeLinecap="round" strokeLinejoin="round"/>
<path d="M43.5482 220.125C45.624 220.01 47.5732 219.08 48.9812 217.533C50.3893 215.986 51.1451 213.945 51.0878 211.843C51.0305 209.742 50.1647 207.746 48.6746 206.28C47.1844 204.814 45.1875 203.994 43.1086 203.994C42.8397 203.994 42.5856 204.006 42.3463 204.031" stroke="#737999" strokeWidth="1.7" strokeLinecap="round" strokeLinejoin="round"/>
<path d="M37.6191 97.1107L43.8506 102.156" stroke="#A7464F" strokeWidth="3.41" strokeLinecap="round" strokeLinejoin="round"/>
<path d="M36.9538 102.331L44.8672 108.694" stroke="#A7464F" strokeWidth="3.41" strokeLinecap="round" strokeLinejoin="round"/>
<path fill-rule="evenodd" clip-rule="evenodd" d="M2.20272 102.091C2.29952 100.41 1.79939 96.6784 0.323193 93.1176C-0.217272 91.8288 -0.249536 89.7078 1.65016 89.7078C3.81202 89.7078 6.70392 94.0965 5.28015 99.3214C3.85639 104.546 2.06156 104.465 2.20272 102.091Z" fill="#F3AEB4"/>
<path fill-rule="evenodd" clip-rule="evenodd" d="M8.8983 92.2162C7.1801 92.2162 1.95695 102.666 1.99325 103.934C2.02955 105.203 2.57404 107.132 3.38474 107.034C4.19544 106.936 10.9795 98.2038 10.9795 95.2385C10.9795 93.5214 10.1527 92.2162 8.8983 92.2162Z" fill="#F3AEB4"/>
<path fill-rule="evenodd" clip-rule="evenodd" d="M11.1409 98.22C8.99922 98.22 3.35255 106.549 3.31222 107.503C3.27189 108.458 4.41332 109.335 5.35712 109.375C6.30092 109.416 13.0487 103.82 13.0487 101.218C13.0608 99.6272 12.3509 98.22 11.1409 98.22Z" fill="#F3AEB4"/>
<path fill-rule="evenodd" clip-rule="evenodd" d="M9.16398 113.797C8.23631 113.752 5.65498 111.419 5.65498 109.583C5.65498 108.861 7.45788 106.993 8.36135 107.05C9.26481 107.108 11.108 110.619 11.0717 111.513C11.0354 112.406 10.378 113.842 9.16398 113.797Z" fill="#F3AEB4"/>
<path d="M5.65527 96.0787C3.80398 99.1948 1.97286 103.184 1.99302 103.934" stroke="#A7464F" strokeWidth="3.41" strokeLinecap="round" strokeLinejoin="round"/>
<path d="M9.8457 98.8318C7.29664 100.773 3.35608 106.708 3.32381 107.503" stroke="#A94B53" strokeWidth="3.41" strokeLinecap="round" strokeLinejoin="round"/>
<path fill-rule="evenodd" clip-rule="evenodd" d="M65.5664 23.8565C65.5664 14.5203 58.1814 6.93384 49.054 6.93384C39.9265 6.93384 32.5576 14.504 32.5576 23.8402C32.5576 33.1764 39.9588 40.7629 49.054 40.7629C58.1491 40.7629 65.5664 33.1968 65.5664 23.8565Z" fill="#F3AEB4"/>
<path fill-rule="evenodd" clip-rule="evenodd" d="M51.4978 25.0761C51.3203 23.9993 50.6911 23.204 50.0619 23.31C49.4327 23.4161 49.0859 24.3705 49.2553 25.4473C49.4247 26.5241 50.0619 27.3194 50.6911 27.2175C51.3203 27.1155 51.6712 26.157 51.4978 25.0761Z" fill="#B5545C"/>
<path fill-rule="evenodd" clip-rule="evenodd" d="M39.071 25.8836C38.9057 24.8762 38.3087 24.1339 37.732 24.2318C37.1552 24.3296 36.8204 25.2229 36.9818 26.2303C37.1431 27.2378 37.7481 27.976 38.3249 27.8618C38.9016 27.7476 39.2364 26.8911 39.071 25.8836Z" fill="#B5545C"/>
<path fill-rule="evenodd" clip-rule="evenodd" d="M63.0455 31.3003C62.0654 34.0575 59.601 48.3861 60.2221 53.5906C57.6408 57.5469 46.1377 56.4457 42.7094 53.097C44.4155 48.28 44.48 44.8253 43.8549 40.7629C43.262 36.9615 64.0256 28.5512 63.0455 31.3003Z" fill="#F3AEB4"/>
<path fill-rule="evenodd" clip-rule="evenodd" d="M42.5238 6.52601C42.3827 10.5436 46.0086 14.3817 55.8661 16.2864C54.7852 19.1048 54.6964 23.3426 60.0809 24.1054C66.3608 24.9864 66.873 16.8738 66.873 16.8738L57.4673 5.63685C57.4673 5.63685 42.661 2.5003 42.5238 6.52601Z" fill="black"/>
<path fill-rule="evenodd" clip-rule="evenodd" d="M45.4845 3.69948C45.8878 7.26837 41.8262 15.9357 32.4205 16.1723C25.7333 16.1723 45.0932 0.126504 45.4845 3.69948Z" fill="black"/>
<path fill-rule="evenodd" clip-rule="evenodd" d="M56.3943 40.1634C57.2978 39.0091 55.991 33.7475 54.5672 31.337C52.849 30.3132 46.7546 31.1657 43.6127 28.4329C42.689 27.6172 42.1929 28.2208 41.475 29.1141C40.2126 30.6803 36.4172 31.492 34.9975 32.3771C34.7877 34.6612 36.8609 39.8901 37.7563 41.0607C39.1599 42.9165 51.9899 43.0838 56.3943 40.1634Z" fill="white"/>
<path d="M53.737 31.8141C54.5679 30.411 58.1979 24.1339 59.3555 22.5432" stroke="white" strokeWidth="3.41" strokeLinecap="round" strokeLinejoin="round"/>
<path d="M55.6805 39.8288C58.1368 39.8288 63.9771 32.0588 64.6426 29.4525" stroke="white" strokeWidth="3.41" strokeLinecap="round" strokeLinejoin="round"/>
<path fill-rule="evenodd" clip-rule="evenodd" d="M68.3896 25.2434C68.3896 24.168 68.0743 23.1168 67.4836 22.2227C66.8928 21.3286 66.0531 20.6318 65.0707 20.2203C64.0883 19.8088 63.0073 19.7011 61.9643 19.9109C60.9214 20.1207 59.9634 20.6385 59.2115 21.3988C58.4596 22.1592 57.9475 23.128 57.7401 24.1827C57.5326 25.2373 57.6391 26.3305 58.046 27.324C58.453 28.3175 59.1421 29.1666 60.0262 29.764C60.9104 30.3614 61.9499 30.6803 63.0132 30.6803C64.4391 30.6803 65.8067 30.1075 66.8149 29.0879C67.8232 28.0682 68.3896 26.6853 68.3896 25.2434V25.2434Z" fill="#F3AEB4"/>
<path d="M34.4167 295.366L70.6602 295.113" stroke="#4C4FD9" strokeWidth="1.7" strokeLinecap="round" strokeLinejoin="round"/>
<path d="M33.6423 297.165C34.6385 293.979 38.5347 287.739 53.7363 287.588V286.042" stroke="#4C4FD9" strokeWidth="1.7" strokeLinecap="round" strokeLinejoin="round"/>
<path d="M70.6602 290.887C69.7597 290.887 68.8681 291.067 68.0362 291.415C67.2043 291.764 66.4485 292.274 65.8118 292.918C65.1751 293.562 64.67 294.327 64.3254 295.168C63.9809 296.009 63.8035 296.911 63.8035 297.821C63.8035 298.005 63.8035 298.184 63.8035 298.364" stroke="#4C4FD9" strokeWidth="1.7" strokeLinecap="round" strokeLinejoin="round"/>
<path d="M49.7188 291.108L47.9401 287.991" stroke="#4C4FD9" strokeWidth="1.7" strokeLinecap="round" strokeLinejoin="round"/>
<path d="M45.5332 291.842L44.0167 288.783" stroke="#4C4FD9" strokeWidth="1.7" strokeLinecap="round" strokeLinejoin="round"/>
<path d="M41.5723 292.645L40.2534 290.17" stroke="#4C4FD9" strokeWidth="1.7" strokeLinecap="round" strokeLinejoin="round"/>
<path d="M48.7754 143.425L29.9397 142.829" stroke="#737999" strokeWidth="1.7" strokeLinecap="round" strokeLinejoin="round"/>
<path d="M70.8057 284.749L53.7366 284.468" stroke="#4C4FD9" strokeWidth="1.7" strokeLinecap="round" strokeLinejoin="round"/>
<path d="M53.4141 283.065L35.861 282.922" stroke="#4C4FD9" strokeWidth="1.7" strokeLinecap="round" strokeLinejoin="round"/>
<path d="M16.3075 294.819L35.0303 294.411" stroke="#4C4FD9" strokeWidth="1.7" strokeLinecap="round" strokeLinejoin="round"/>
<path d="M30.2304 286.76L31.8438 289.66" stroke="#4C4FD9" strokeWidth="1.7" strokeLinecap="round" strokeLinejoin="round"/>
<path d="M27.54 287.408L29.1533 290.312" stroke="#4C4FD9" strokeWidth="1.7" strokeLinecap="round" strokeLinejoin="round"/>
<path d="M24.6689 288.208L26.2822 291.112" stroke="#4C4FD9" strokeWidth="1.7" strokeLinecap="round" strokeLinejoin="round"/>
<path d="M77.896 170.981C83.946 173.542 88.4876 168.978 88.5239 164.455C88.5602 159.931 86.7895 132.942 86.5475 130.25" stroke="#C9C9C9" strokeWidth="2" strokeLinecap="round" strokeLinejoin="round"/>
<path d="M14.4397 70.97C14.1251 61.7357 23.7406 57.5102 27.6973 55.6992" stroke="#C9C9C9" strokeWidth="2" strokeLinecap="round" strokeLinejoin="round"/>
<path d="M16.3192 163.149C15.565 158.226 15.5126 144.905 16.7871 139.823" stroke="#C9C9C9" strokeWidth="2" strokeLinecap="round" strokeLinejoin="round"/>
</svg>
