<svg width="77" height="65" viewBox="0 0 77 65" fill="none" xmlns="http://www.w3.org/2000/svg">
<g clip-path="url(#clip0_758_49435)">
<path d="M1.00977 14.9316H51.6764V51.1941C51.6764 51.7598 51.454 52.3024 51.0581 52.7024C50.6622 53.1025 50.1252 53.3272 49.5653 53.3272H3.12088C2.56098 53.3272 2.02401 53.1025 1.6281 52.7024C1.23219 52.3024 1.00977 51.7598 1.00977 51.1941V14.9316Z" fill="white" stroke="#066DC6" stroke-width="3" stroke-linecap="round" stroke-linejoin="round"/>
<path opacity="0.2" d="M51.6784 14.9316L26.3451 38.3956L1.01172 14.9316H51.6784Z" fill="#066DC6"/>
<path d="M51.6764 14.9316L26.3431 38.3956L1.00977 14.9316" stroke="#066DC6" stroke-width="3" stroke-linecap="round" stroke-linejoin="round"/>
<path d="M21.7384 34.1294L1.66211 52.7243" stroke="#066DC6" stroke-width="3" stroke-linecap="round" stroke-linejoin="round"/>
<path d="M51.0259 52.7245L30.9492 34.1294" stroke="#066DC6" stroke-width="3" stroke-linecap="round" stroke-linejoin="round"/>
</g>
<g clip-path="url(#clip1_758_49435)">
<path d="M63.4629 42.3604C61.6199 46.1282 58.5658 49.1685 54.7896 50.9943C54.5133 51.1252 54.2077 51.1819 53.9029 51.1588C53.598 51.1358 53.3044 51.0337 53.051 50.8627L47.4909 47.1551C47.2449 46.9911 46.962 46.8911 46.6677 46.8641C46.3734 46.837 46.0769 46.8838 45.8053 47.0003L35.4034 51.4582C35.05 51.6083 34.755 51.8692 34.5628 52.2015C34.3706 52.5339 34.2916 52.9197 34.3377 53.3008C34.6665 55.8735 35.9217 58.2381 37.8684 59.9519C39.8151 61.6658 42.3197 62.6113 44.9133 62.6114C52.9239 62.6114 60.6063 59.4292 66.2707 53.7649C71.935 48.1005 75.1172 40.4181 75.1172 32.4075C75.1171 29.8139 74.1716 27.3093 72.4577 25.3626C70.7439 23.4159 68.3793 22.1607 65.8066 21.8319C65.4255 21.7858 65.0397 21.8648 64.7073 22.057C64.375 22.2492 64.1141 22.5442 63.964 22.8975L59.5022 33.3085C59.3868 33.5778 59.3397 33.8715 59.3653 34.1633C59.3908 34.4552 59.4882 34.7362 59.6486 34.9814L63.3433 40.6268C63.5115 40.8807 63.6109 41.1739 63.6319 41.4778C63.6528 41.7817 63.5946 42.0858 63.4629 42.3604Z" fill="white"/>
<path d="M63.4629 42.3604C61.6199 46.1282 58.5658 49.1685 54.7896 50.9943C54.5133 51.1252 54.2077 51.1819 53.9029 51.1588C53.598 51.1358 53.3044 51.0337 53.051 50.8627L47.4909 47.1551C47.2449 46.9911 46.962 46.8911 46.6677 46.8641C46.3734 46.837 46.0769 46.8838 45.8053 47.0003L35.4034 51.4582C35.05 51.6083 34.755 51.8692 34.5628 52.2015C34.3706 52.5339 34.2916 52.9197 34.3377 53.3008C34.6665 55.8735 35.9217 58.2381 37.8684 59.9519C39.8151 61.6658 42.3197 62.6113 44.9133 62.6114C52.9239 62.6114 60.6063 59.4292 66.2707 53.7649C71.935 48.1005 75.1172 40.4181 75.1172 32.4075C75.1171 29.8139 74.1716 27.3093 72.4577 25.3626C70.7439 23.4159 68.3793 22.1607 65.8066 21.8319C65.4255 21.7858 65.0397 21.8648 64.7073 22.057C64.375 22.2492 64.1141 22.5442 63.964 22.8975L59.5022 33.3085C59.3868 33.5778 59.3397 33.8715 59.3653 34.1633C59.3908 34.4552 59.4882 34.7362 59.6486 34.9814L63.3433 40.6268C63.5115 40.8807 63.6109 41.1739 63.6319 41.4778C63.6528 41.7817 63.5946 42.0858 63.4629 42.3604V42.3604Z" stroke="#F7981D" stroke-width="3" stroke-linecap="round" stroke-linejoin="round"/>
</g>
<defs>
<clipPath id="clip0_758_49435">
<rect width="57" height="62" fill="white"/>
</clipPath>
<clipPath id="clip1_758_49435">
<rect width="47.9709" height="51.6413" fill="white" transform="matrix(-1 0 0 1 77 12.9314)"/>
</clipPath>
</defs>
</svg>
