<svg width="250" height="238" viewBox="0 0 250 238" fill="none" xmlns="http://www.w3.org/2000/svg">
<path fill-rule="evenodd" clip-rule="evenodd" d="M108.979 106.119C108.979 103.543 113.064 101.46 118.099 101.46C123.135 101.46 127.22 103.543 127.22 106.119C127.22 108.694 123.135 110.774 118.099 110.774C113.064 110.774 108.979 108.698 108.979 106.119Z" fill="#8DC5E0"/>
<path fill-rule="evenodd" clip-rule="evenodd" d="M94.7256 214.367L97.4936 223.206L108.978 220.604L107.852 209.363L94.7256 214.367Z" fill="#F7981D"/>
<path fill-rule="evenodd" clip-rule="evenodd" d="M64.2442 107.161H238.905C239.353 107.161 239.782 107.337 240.099 107.651C240.415 107.965 240.593 108.391 240.593 108.835V111.865C240.593 112.308 240.415 112.734 240.099 113.048C239.782 113.362 239.353 113.539 238.905 113.539H64.2442C63.7966 113.539 63.3674 113.362 63.0509 113.048C62.7344 112.734 62.5566 112.308 62.5566 111.865V108.835C62.5566 108.391 62.7344 107.965 63.0509 107.651C63.3674 107.337 63.7966 107.161 64.2442 107.161V107.161Z" fill="#DFEBFB"/>
<path d="M88.0212 113.69L52.6865 221.184" stroke="#DFEBFB" strokeWidth="2" strokeLinecap="round" strokeLinejoin="round"/>
<path d="M116.697 113.69L81.3779 221.184" stroke="#DFEBFB" strokeWidth="2" strokeLinecap="round" strokeLinejoin="round"/>
<path d="M116.698 113.69L152.014 221.184" stroke="#DFEBFB" strokeWidth="2" strokeLinecap="round" strokeLinejoin="round"/>
<path d="M88.0215 113.69L123.337 221.184" stroke="#DFEBFB" strokeWidth="2" strokeLinecap="round" strokeLinejoin="round"/>
<path fill-rule="evenodd" clip-rule="evenodd" d="M56.4208 203.588L52.7021 211.92L62.9952 216.294L67.5767 207.871L56.4208 203.588Z" fill="#F7981D"/>
<path fill-rule="evenodd" clip-rule="evenodd" d="M52.4652 211.151L63.3462 215.825C63.3462 215.825 76.9074 228.429 83.1649 231.501C83.1458 234.3 82.7831 235.599 80.6146 236.398C79.6448 236.754 62.1168 229.793 62.1168 229.793L59.1771 226.664L47.8379 221.491L52.4652 211.151Z" fill="#6A3416"/>
<path d="M59.0361 208.954C59.0361 208.682 59.1174 208.417 59.2697 208.191C59.422 207.964 59.6384 207.788 59.8917 207.684C60.1449 207.58 60.4236 207.553 60.6924 207.606C60.9613 207.659 61.2082 207.79 61.402 207.982C61.5958 208.174 61.7278 208.419 61.7813 208.686C61.8348 208.953 61.8073 209.229 61.7024 209.48C61.5975 209.732 61.4199 209.946 61.192 210.097C60.9641 210.249 60.6961 210.329 60.422 210.329C60.2399 210.33 60.0594 210.294 59.8911 210.226C59.7227 210.157 59.5697 210.055 59.4409 209.928C59.3121 209.8 59.2101 209.648 59.1406 209.481C59.0711 209.314 59.0356 209.135 59.0361 208.954V208.954Z" stroke="#DFEBFB" strokeWidth="2" strokeLinecap="round" strokeLinejoin="round"/>
<path d="M53.7939 210.746C53.7939 210.473 53.8755 210.206 54.0284 209.979C54.1813 209.753 54.3986 209.576 54.6527 209.472C54.9069 209.368 55.1865 209.34 55.4562 209.394C55.7259 209.447 55.9735 209.579 56.1677 209.772C56.3619 209.966 56.4939 210.212 56.5471 210.479C56.6003 210.747 56.5723 211.024 56.4665 211.276C56.3607 211.528 56.182 211.743 55.953 211.894C55.7239 212.045 55.4549 212.125 55.1798 212.124C54.8119 212.123 54.4594 211.978 54.1996 211.719C53.9398 211.461 53.7939 211.111 53.7939 210.746V210.746Z" stroke="#DFEBFB" strokeWidth="2" strokeLinecap="round" strokeLinejoin="round"/>
<path d="M60.9795 213.166C60.9795 212.894 61.0608 212.628 61.2131 212.402C61.3653 212.176 61.5818 212 61.835 211.896C62.0883 211.792 62.3669 211.765 62.6358 211.818C62.9046 211.871 63.1515 212.002 63.3454 212.194C63.5392 212.386 63.6712 212.631 63.7247 212.898C63.7781 213.165 63.7507 213.441 63.6458 213.692C63.5409 213.943 63.3633 214.158 63.1354 214.309C62.9074 214.46 62.6395 214.541 62.3654 214.541C61.9978 214.541 61.6453 214.396 61.3854 214.138C61.1255 213.88 60.9795 213.531 60.9795 213.166Z" stroke="#DFEBFB" strokeWidth="2" strokeLinecap="round" strokeLinejoin="round"/>
<path fill-rule="evenodd" clip-rule="evenodd" d="M46.9828 219.502L58.0815 224.399C58.3699 224.524 58.5969 224.757 58.7127 225.047C58.8286 225.338 58.824 225.661 58.7 225.948L57.7302 228.111C57.6652 228.251 57.573 228.378 57.4587 228.483C57.3444 228.588 57.2103 228.669 57.0642 228.723C56.9181 228.776 56.7627 228.801 56.6071 228.794C56.4515 228.788 56.2986 228.752 56.1572 228.687L45.051 223.79C44.9079 223.729 44.7785 223.64 44.6699 223.529C44.5614 223.419 44.476 223.288 44.4185 223.144C44.361 223.001 44.3327 222.847 44.3351 222.693C44.3375 222.538 44.3706 222.386 44.4325 222.244L45.3984 220.082C45.4638 219.94 45.5567 219.813 45.6718 219.707C45.7869 219.601 45.922 219.519 46.0692 219.465C46.2164 219.411 46.3729 219.387 46.5297 219.393C46.6865 219.4 46.8405 219.437 46.9828 219.502V219.502Z" fill="#3C1B09"/>
<path fill-rule="evenodd" clip-rule="evenodd" d="M28.2106 123.848C53.4889 116.784 89.7513 120.697 97.5742 131.472C100.369 135.32 99.4221 141.342 98.7196 143.611C98.0171 145.879 68.436 208.837 68.436 208.837L55.1726 203.834L68.2069 152.704C68.2069 152.704 25.0684 124.719 28.2106 123.848Z" fill="#C4C4C4"/>
<path d="M59.8691 205.602L75.1369 156.798" stroke="#8D8D8D" strokeWidth="2" strokeLinecap="round" strokeLinejoin="round"/>
<path d="M56.5049 198.584L70.738 203.887" stroke="#8D8D8D" strokeWidth="2" strokeLinecap="round" strokeLinejoin="round"/>
<path fill-rule="evenodd" clip-rule="evenodd" d="M97.2656 222.392L108.666 219.165C108.666 219.165 127.209 220.389 134.013 218.828C135.788 221.006 136.349 222.237 135.158 224.222C134.635 225.104 116.63 230.743 116.63 230.743L112.358 230.172L100.297 233.304L97.2656 222.392Z" fill="#6A3416"/>
<path fill-rule="evenodd" clip-rule="evenodd" d="M98.3602 232.304L110.074 229.111C110.223 229.068 110.379 229.055 110.534 229.072C110.689 229.089 110.838 229.136 110.974 229.211C111.11 229.286 111.23 229.386 111.327 229.507C111.424 229.627 111.497 229.766 111.54 229.914L112.173 232.186C112.213 232.336 112.223 232.491 112.201 232.645C112.18 232.798 112.129 232.945 112.05 233.079C111.971 233.212 111.867 233.329 111.743 233.422C111.618 233.515 111.477 233.583 111.326 233.622L99.6125 236.814C99.4631 236.857 99.3066 236.871 99.152 236.853C98.9975 236.836 98.8478 236.789 98.7117 236.714C98.5755 236.64 98.4555 236.539 98.3585 236.419C98.2615 236.298 98.1894 236.16 98.1464 236.012L97.5126 233.739C97.473 233.59 97.4634 233.434 97.4846 233.281C97.5058 233.128 97.5572 232.98 97.6359 232.847C97.7147 232.713 97.8192 232.597 97.9435 232.504C98.0678 232.41 98.2094 232.342 98.3602 232.304V232.304Z" fill="#3C1B09"/>
<path d="M102.358 218.434C102.358 218.161 102.439 217.894 102.591 217.667C102.743 217.44 102.96 217.262 103.215 217.157C103.469 217.053 103.748 217.025 104.018 217.078C104.288 217.131 104.536 217.263 104.731 217.456C104.925 217.649 105.058 217.895 105.111 218.162C105.165 218.43 105.137 218.708 105.031 218.96C104.926 219.212 104.747 219.427 104.518 219.578C104.289 219.729 104.019 219.81 103.744 219.809C103.377 219.809 103.024 219.664 102.764 219.406C102.504 219.148 102.358 218.799 102.358 218.434Z" stroke="#DFEBFB" strokeWidth="2" strokeLinecap="round" strokeLinejoin="round"/>
<path d="M104.844 213.988C104.843 213.715 104.924 213.448 105.076 213.22C105.229 212.993 105.446 212.816 105.7 212.711C105.954 212.606 106.234 212.579 106.504 212.632C106.774 212.685 107.022 212.816 107.216 213.009C107.411 213.202 107.543 213.448 107.597 213.716C107.65 213.984 107.622 214.261 107.517 214.513C107.411 214.765 107.232 214.981 107.003 215.132C106.774 215.283 106.505 215.363 106.23 215.362C105.862 215.361 105.51 215.216 105.251 214.959C104.991 214.701 104.845 214.352 104.844 213.988V213.988Z" stroke="#DFEBFB" strokeWidth="2" strokeLinecap="round" strokeLinejoin="round"/>
<path d="M97.2656 217.453C97.2656 217.181 97.3469 216.915 97.4992 216.689C97.6515 216.463 97.8679 216.287 98.1212 216.183C98.3744 216.079 98.6531 216.052 98.9219 216.105C99.1907 216.158 99.4377 216.289 99.6315 216.481C99.8253 216.673 99.9573 216.918 100.011 217.185C100.064 217.452 100.037 217.728 99.9319 217.979C99.827 218.23 99.6494 218.445 99.4215 218.596C99.1936 218.747 98.9256 218.828 98.6515 218.828C98.284 218.828 97.9315 218.683 97.6715 218.425C97.4116 218.167 97.2656 217.818 97.2656 217.453Z" stroke="#DFEBFB" strokeWidth="2" strokeLinecap="round" strokeLinejoin="round"/>
<path fill-rule="evenodd" clip-rule="evenodd" d="M7.49454 154.764H65.4503C67.438 154.764 69.3442 155.548 70.7497 156.942C72.1552 158.336 72.9448 160.227 72.9448 162.199C72.9448 164.171 72.1552 166.062 70.7497 167.456C69.3442 168.85 67.438 169.634 65.4503 169.634H7.49454C5.50687 169.634 3.6006 168.85 2.1951 167.456C0.789601 166.062 0 164.171 0 162.199H0C0 160.227 0.789601 158.336 2.1951 156.942C3.6006 155.548 5.50687 154.764 7.49454 154.764V154.764Z" fill="#DFEBFB"/>
<path fill-rule="evenodd" clip-rule="evenodd" d="M34.0436 164.555H38.8999C39.2847 164.555 39.6537 164.706 39.9258 164.976C40.1979 165.246 40.3507 165.612 40.3507 165.994V219.245C40.3507 219.626 40.1979 219.993 39.9258 220.262C39.6537 220.532 39.2847 220.684 38.8999 220.684H34.0436C33.6588 220.684 33.2898 220.532 33.0177 220.262C32.7456 219.993 32.5928 219.626 32.5928 219.245V165.994C32.5928 165.612 32.7456 165.246 33.0177 164.976C33.2898 164.706 33.6588 164.555 34.0436 164.555V164.555Z" fill="#DFEBFB"/>
<path fill-rule="evenodd" clip-rule="evenodd" d="M32.0898 203.588H40.8709C41.5048 203.588 42.1127 203.837 42.5609 204.282C43.0091 204.727 43.2609 205.33 43.2609 205.958V218.813C43.2609 219.126 43.1985 219.436 43.0772 219.725C42.9559 220.014 42.7781 220.276 42.5542 220.496C42.3302 220.717 42.0645 220.891 41.7723 221.009C41.4801 221.127 41.1673 221.186 40.8518 221.184H32.0707C31.4368 221.184 30.8289 220.934 30.3807 220.489C29.9325 220.045 29.6807 219.442 29.6807 218.813V205.958C29.6807 205.646 29.7431 205.336 29.8644 205.047C29.9857 204.758 30.1635 204.496 30.3874 204.275C30.6114 204.055 30.8771 203.881 31.1693 203.763C31.4615 203.645 31.7743 203.585 32.0898 203.588Z" fill="#DFEBFB"/>
<path d="M7.37598 230.338V227.827C7.37598 226.065 8.08151 224.375 9.33737 223.13C10.5932 221.884 12.2965 221.184 14.0726 221.184H36.4722" stroke="#DFEBFB" strokeWidth="2" strokeLinecap="round" strokeLinejoin="round"/>
<path d="M65.5043 230.338V227.827C65.5038 226.954 65.3299 226.089 64.9925 225.283C64.655 224.476 64.1607 223.744 63.5378 223.127C62.9148 222.51 62.1754 222.021 61.3619 221.687C60.5483 221.354 59.6765 221.183 58.7963 221.184H36.4043" stroke="#DFEBFB" strokeWidth="2" strokeLinecap="round" strokeLinejoin="round"/>
<path d="M25.4961 230.338V227.308C25.4961 223.926 27.2714 221.184 29.4591 221.184H43.486C45.6737 221.184 47.449 223.926 47.449 227.308V230.338" stroke="#DFEBFB" strokeWidth="2" strokeLinecap="round" strokeLinejoin="round"/>
<path d="M3.70703 233.982C3.70703 233.262 3.92221 232.558 4.32537 231.959C4.72853 231.361 5.30155 230.894 5.97197 230.619C6.64239 230.343 7.3801 230.271 8.09182 230.412C8.80354 230.552 9.45729 230.899 9.97041 231.408C10.4835 231.917 10.833 232.565 10.9745 233.271C11.1161 233.978 11.0435 234.709 10.7658 235.374C10.4881 236.039 10.0178 236.608 9.41442 237.008C8.81106 237.408 8.10169 237.621 7.37603 237.621C6.40326 237.62 5.47063 237.236 4.78277 236.554C4.09492 235.872 3.70804 234.947 3.70703 233.982V233.982Z" stroke="#DFEBFB" strokeWidth="2" strokeLinecap="round" strokeLinejoin="round"/>
<path d="M21.8271 233.982C21.8271 233.262 22.0423 232.558 22.4455 231.959C22.8486 231.361 23.4217 230.894 24.0921 230.619C24.7625 230.343 25.5002 230.271 26.2119 230.412C26.9237 230.552 27.5774 230.899 28.0905 231.408C28.6036 231.917 28.9531 232.565 29.0947 233.271C29.2362 233.978 29.1636 234.709 28.8859 235.374C28.6082 236.039 28.1379 236.608 27.5345 237.008C26.9312 237.408 26.2218 237.621 25.4962 237.621C24.5234 237.62 23.5907 237.236 22.9029 236.554C22.215 235.872 21.8282 234.947 21.8271 233.982V233.982Z" stroke="#DFEBFB" strokeWidth="2" strokeLinecap="round" strokeLinejoin="round"/>
<path d="M47.4483 230.338C48.1749 230.337 48.8854 230.55 49.4899 230.95C50.0943 231.35 50.5657 231.919 50.8443 232.585C51.1228 233.25 51.1961 233.983 51.0548 234.69C50.9136 235.397 50.5641 236.047 50.0506 236.557C49.537 237.067 48.8826 237.414 48.1701 237.555C47.4575 237.696 46.7188 237.624 46.0475 237.348C45.3761 237.072 44.8023 236.605 44.3985 236.006C43.9948 235.407 43.7793 234.702 43.7793 233.982C43.7793 233.016 44.1657 232.09 44.8537 231.407C45.5417 230.724 46.4749 230.339 47.4483 230.338" stroke="#DFEBFB" strokeWidth="2" strokeLinecap="round" strokeLinejoin="round"/>
<path d="M61.8496 233.982C61.8496 233.262 62.0648 232.558 62.468 231.959C62.8711 231.361 63.4441 230.894 64.1146 230.619C64.785 230.343 65.5227 230.271 66.2344 230.412C66.9461 230.552 67.5999 230.899 68.113 231.408C68.6261 231.917 68.9756 232.565 69.1171 233.271C69.2587 233.978 69.186 234.709 68.9083 235.374C68.6307 236.039 68.1604 236.608 67.557 237.008C66.9537 237.408 66.2443 237.621 65.5186 237.621C64.5459 237.62 63.6132 237.236 62.9254 236.554C62.2375 235.872 61.8506 234.947 61.8496 233.982V233.982Z" stroke="#DFEBFB" strokeWidth="2" strokeLinecap="round" strokeLinejoin="round"/>
<path fill-rule="evenodd" clip-rule="evenodd" d="M9.6667 109.028C-13.4583 156.946 33.2155 158.237 49.5943 157.999C65.9731 157.76 70.2835 156.537 74.7161 155.472C76.1325 159.729 93.1108 214.859 93.1108 214.859L108.02 210.39C108.02 210.39 96.6232 140.353 94.05 135.623C86.983 122.617 45.1808 121.912 39.893 122.227C34.6052 122.541 12.5988 102.953 9.6667 109.028Z" fill="#C4C4C4"/>
<path d="M11.1103 115.576C-4.73014 154.795 63.2056 152.431 78.0649 147.94C80.2869 154.246 98.6816 212.859 98.6816 212.859" stroke="#8D8D8D" strokeWidth="2" strokeLinecap="round" strokeLinejoin="round"/>
<path d="M97.0163 148.011C92.2365 147.036 87.9293 144.487 84.7934 140.778C81.6574 137.069 79.8768 132.417 79.7402 127.578" stroke="#8D8D8D" strokeWidth="2" strokeLinecap="round" strokeLinejoin="round"/>
<path d="M67.6035 156.912C69.9993 156.562 72.3738 156.081 74.7163 155.473C75.3042 157.237 78.5685 167.755 82.1841 179.458" stroke="#8D8D8D" strokeWidth="2" strokeLinecap="round" strokeLinejoin="round"/>
<path d="M96.906 147.246C95.6614 141.084 94.6152 136.691 94.0502 135.623C87.407 123.405 50.0832 122.041 41.2295 122.185" stroke="#8D8D8D" strokeWidth="2" strokeLinecap="round" strokeLinejoin="round"/>
<path d="M107.306 206.057L91.8281 210.697" stroke="#8D8D8D" strokeWidth="2" strokeLinecap="round" strokeLinejoin="round"/>
<path fill-rule="evenodd" clip-rule="evenodd" d="M37.6709 34.7228C37.6709 33.1705 38.135 31.6532 39.0044 30.3626C39.8738 29.072 41.1095 28.0661 42.5552 27.4723C44.0009 26.8785 45.5917 26.7233 47.1263 27.0264C48.6609 27.3295 50.0705 28.0773 51.1767 29.1751C52.2828 30.273 53.036 31.6716 53.3408 33.1941C53.6456 34.7167 53.4884 36.2946 52.889 37.7285C52.2897 39.1624 51.2752 40.3877 49.9738 41.2496C48.6724 42.1114 47.1425 42.571 45.5778 42.5703C44.5391 42.5703 43.5106 42.3673 42.5511 41.9728C41.5915 41.5784 40.7197 41.0003 39.9854 40.2716C39.2512 39.5428 38.6688 38.6777 38.2717 37.7256C37.8745 36.7735 37.6704 35.7532 37.6709 34.7228V34.7228Z" fill="#6A3416"/>
<path fill-rule="evenodd" clip-rule="evenodd" d="M112.429 99.3244C113.731 98.2639 117.259 95.6771 118.389 95.6923C119.519 95.7074 122.94 98.8964 123.017 99.7334C123.093 100.57 122.005 101.892 121.356 101.987C120.707 102.082 118.618 100.093 118.16 100.271C117.702 100.449 116.694 101.51 116.4 101.979C116.106 102.449 111.131 100.366 112.429 99.3244Z" fill="#F77F89"/>
<path fill-rule="evenodd" clip-rule="evenodd" d="M65.7752 78.5315L73.5866 86.4396C73.5866 86.4396 79.4967 73.8541 83.6124 67.1959C82.7801 66.0066 81.3217 61.2686 81.5088 60.3785C81.6958 59.4885 85.9948 51.0881 87.0333 51.5766C88.0717 52.0652 89.0415 53.7052 88.5108 55.364C89.1255 53.1787 90.1639 50.1564 91.0802 49.8572C91.9965 49.558 93.9246 49.9518 93.8406 51.4857C94.2796 50.4821 95.0547 49.7776 95.9404 49.7397C96.704 49.7057 98.2617 50.3533 98.3686 51.3077C98.4984 52.5008 96.7804 55.3489 96.5704 55.7541C97.3721 54.6709 97.3645 54.6179 97.8456 54.6179C98.8115 54.652 100.446 56.0761 99.6476 58.1326C98.8497 60.1892 94.9058 69.7864 91.8515 70.1955C91.9927 72.0589 82.8908 98.0594 82.8908 98.0594L69.1006 97.514L59.0557 84.3338L65.7752 78.5315Z" fill="#F77F89"/>
<path fill-rule="evenodd" clip-rule="evenodd" d="M38.6065 49.9632C13.2442 49.9935 4.76845 109.047 7.41807 113.095C9.36139 116.065 32.3681 124.795 40.252 122.113C43.0353 121.166 50.2778 106.414 54.3783 91.5299C58.7498 87.9697 67.0232 81.2282 68.3709 79.9291C67.9891 77.0772 61.3421 65.5862 54.4584 60.4959C52.0799 55.1065 47.6664 49.9632 38.6065 49.9632Z" fill="#3B4161"/>
<path fill-rule="evenodd" clip-rule="evenodd" d="M45.166 90.0869C45.166 90.0869 57.2726 105.237 60.4567 106.467C63.6408 107.698 98.0325 107.304 100.545 107.013C103.057 106.721 102.599 108.622 104.87 108.744C107.222 108.872 108.578 106.808 108.898 105.767C110.334 107.35 112.865 109.785 114.526 108.937C115.702 108.331 115.717 107.801 114.908 106.964C116.053 107.619 118.122 108.581 118.958 107.933C120.302 106.895 120.428 105.926 119.974 105.119C118.573 102.623 114.06 99.0896 112.987 98.6805C111.75 98.1958 107.982 99.5289 106.168 99.6388C97.9485 100.142 77.2211 95.0712 70.4214 94.7644C69.4211 92.8707 59.0555 80.4367 58.2538 79.1944C55.4094 81.607 45.166 90.0869 45.166 90.0869Z" fill="#F77F89"/>
<path fill-rule="evenodd" clip-rule="evenodd" d="M41.7871 37.8171C41.7864 35.4602 42.4903 33.156 43.8098 31.196C45.1293 29.236 47.0051 27.7082 49.2 26.8059C51.3949 25.9036 53.8103 25.6673 56.1405 26.127C58.4708 26.5866 60.6114 27.7215 62.2914 29.3881C63.9714 31.0547 65.1154 33.1781 65.5787 35.4897C66.0421 37.8014 65.8039 40.1975 64.8943 42.3748C63.9847 44.5522 62.4447 46.413 60.4689 47.722C58.4931 49.031 56.1703 49.7292 53.7944 49.7285C50.6102 49.7275 47.5567 48.4722 45.3051 46.2386C43.0535 44.005 41.7881 40.9759 41.7871 37.8171V37.8171Z" fill="#F77F89"/>
<path fill-rule="evenodd" clip-rule="evenodd" d="M43.3984 35.2226C43.4481 37.0747 39.5385 48.7853 37.9961 51.0275C38.7597 52.8189 46.2313 57.3107 49.6636 56.3525C50.0454 54.0801 51.3244 49.5125 52.1147 48.4975C52.905 47.4825 43.3488 33.3555 43.3984 35.2226Z" fill="#F77F89"/>
<path fill-rule="evenodd" clip-rule="evenodd" d="M57.1242 12.7028C55.9827 12.7062 54.8557 12.956 53.8213 13.4347C52.7869 13.9134 51.8699 14.6097 51.1339 15.4751C50.1464 15.1057 49.1006 14.9134 48.0452 14.907C46.6306 14.8871 45.2315 15.1999 43.9623 15.8199C42.6932 16.44 41.5902 17.3495 40.7439 18.4741C39.8975 19.5986 39.3318 20.9061 39.0931 22.2894C38.8545 23.6726 38.9497 25.0923 39.3709 26.4321C38.8374 26.919 38.4114 27.5103 38.1196 28.1687C37.8279 28.827 37.6768 29.5382 37.6758 30.2573C37.6844 31.4948 38.1275 32.6906 38.9288 33.639C39.7301 34.5874 40.8396 35.2291 42.0664 35.4537C42.1275 35.162 42.1275 34.9575 42.2229 34.6242C42.4825 33.738 46.3691 32.117 46.8044 32.4086C47.147 32.6524 47.5371 32.8227 47.9498 32.9085C47.9854 32.9106 48.0211 32.9106 48.0567 32.9085C49.6708 32.9044 51.2545 32.4721 52.6434 31.6563C54.0324 30.8405 55.1761 29.671 55.9559 28.269C56.3457 28.3369 56.74 28.3762 57.1356 28.3864C57.1356 29.9385 57.5996 31.4557 58.4688 32.7462C59.3381 34.0367 60.5735 35.0425 62.019 35.6365C63.4645 36.2305 65.0551 36.3859 66.5896 36.0831C68.1241 35.7803 69.5337 35.0329 70.64 33.9354C71.7464 32.8379 72.4998 31.4396 72.805 29.9173C73.1102 28.3951 72.9536 26.8172 72.3548 25.3833C71.7561 23.9493 70.7422 22.7237 69.4413 21.8614C68.1404 20.9991 66.6109 20.5389 65.0463 20.5389C65.0448 19.5083 64.8387 18.4882 64.4398 17.5367C64.0408 16.5851 63.4569 15.7209 62.7212 14.9932C61.9856 14.2656 61.1127 13.6888 60.1523 13.2958C59.192 12.9028 58.163 12.7013 57.1242 12.7028Z" fill="#6A3416"/>
<path fill-rule="evenodd" clip-rule="evenodd" d="M38.6026 30.5983C38.6048 29.6864 38.8795 28.7956 39.3918 28.0385C39.9042 27.2814 40.6312 26.6919 41.4811 26.3445C42.331 25.9971 43.2657 25.9073 44.167 26.0866C45.0683 26.2659 45.8958 26.7061 46.545 27.3517C47.1942 27.9973 47.6359 28.8193 47.8144 29.7138C47.9929 30.6084 47.9002 31.5353 47.5479 32.3776C47.1956 33.2198 46.5996 33.9396 45.8351 34.446C45.0706 34.9524 44.172 35.2227 43.2528 35.2227C42.6411 35.2227 42.0355 35.103 41.4706 34.8704C40.9056 34.6379 40.3925 34.2971 39.9605 33.8675C39.5286 33.438 39.1863 32.9281 38.9532 32.3671C38.7202 31.8061 38.601 31.205 38.6026 30.5983V30.5983Z" fill="#F77F89"/>
<path d="M14.7293 110.774C14.2291 103.449 21.2846 76.2366 26.5648 68.1391" stroke="#737999" strokeWidth="2" strokeLinecap="round" strokeLinejoin="round"/>
<path d="M30.3633 74.5815C31.5926 77.1001 37.6746 88.254 42.8287 92.1891C44.795 90.3409 58.967 78.3613 58.967 78.3613C57.1573 75.0246 48.4563 64.5638 45.6349 61.9998" stroke="#737999" strokeWidth="2" strokeLinecap="round" strokeLinejoin="round"/>
<path d="M40.1602 89.6438L57.1956 75.6796" stroke="#737999" strokeWidth="2" strokeLinecap="round" strokeLinejoin="round"/>
<path d="M52.5153 57.0268C52.3973 57.401 52.2194 57.754 51.9884 58.0721C49.9649 60.8748 44.261 60.568 39.248 57.3904" stroke="#737999" strokeWidth="2" strokeLinecap="round" strokeLinejoin="round"/>
<path d="M54.5078 60.5225C55.4737 63.0146 56.7986 68.8282 56.2373 74.3919" stroke="#737999" strokeWidth="2" strokeLinecap="round" strokeLinejoin="round"/>
<path d="M60.7803 82.4251L67.1943 76.7781" stroke="#737999" strokeWidth="2" strokeLinecap="round" strokeLinejoin="round"/>
<path d="M32.834 105.668C34.9529 105.339 46.5212 105.574 44.3831 106.293C42.2451 107.013 38.2439 107.524 40.0269 107.941C41.7396 108.339 43.4747 108.635 45.2231 108.827" stroke="#737999" strokeWidth="2" strokeLinecap="round" strokeLinejoin="round"/>
<path d="M60.1627 38.1314C60.0444 39.1805 60.2773 41.5401 61.0752 42.5702" stroke="#B5545C" strokeWidth="2" strokeLinecap="round" strokeLinejoin="round"/>
<path fill-rule="evenodd" clip-rule="evenodd" d="M53.7257 36.7377C54.1075 35.8401 54.8711 35.2985 55.4018 35.5295C55.9325 35.7605 56.0394 36.6657 55.6461 37.5709C55.2529 38.4761 54.5007 39.0101 53.97 38.7791C53.4394 38.5481 53.3286 37.6391 53.7257 36.7377Z" fill="#B5545C"/>
<path fill-rule="evenodd" clip-rule="evenodd" d="M62.7931 38.7866C63.1749 37.889 63.9385 37.3474 64.4691 37.5747C64.9998 37.8019 65.1067 38.7109 64.7135 39.6161C64.3202 40.5213 63.5681 41.0553 63.0374 40.8243C62.5067 40.5932 62.396 39.6805 62.7931 38.7866Z" fill="#B5545C"/>
<path d="M53.6795 45.3767C52.9466 45.146 52.2985 44.7061 51.8163 44.1119C51.3342 43.5177 51.0394 42.7957 50.9688 42.0362" stroke="#B5545C" strokeWidth="2" strokeLinecap="round" strokeLinejoin="round"/>
<path d="M51.5841 49.5277C49.9906 49.2312 48.4741 48.6181 47.1258 47.7251C45.7774 46.832 44.6251 45.6777 43.7383 44.3314" stroke="#B5545C" strokeWidth="2" strokeLinecap="round" strokeLinejoin="round"/>
<path d="M44.8759 34.9197C44.3572 35.1135 43.8074 35.2123 43.2533 35.2114C42.83 35.2113 42.4087 35.1539 42.001 35.0409" stroke="#B5545C" strokeWidth="2" strokeLinecap="round" strokeLinejoin="round"/>
<path d="M42.3559 33.3783C41.866 33.2462 41.4231 32.9808 41.0772 32.6122C40.7313 32.2435 40.4962 31.7863 40.3985 31.2921C40.3008 30.7979 40.3444 30.2864 40.5243 29.8155C40.7042 29.3445 41.0133 28.9329 41.4166 28.627C41.8199 28.3212 42.3014 28.1333 42.8067 28.0846C43.312 28.0359 43.821 28.1284 44.2761 28.3516C44.7312 28.5747 45.1143 28.9197 45.3822 29.3475C45.6501 29.7753 45.792 30.2689 45.792 30.7725" stroke="#B5545C" strokeWidth="2" strokeLinecap="round" strokeLinejoin="round"/>
<path d="M83.2297 96.6884L70.5275 94.7644L62.6436 84.7202" stroke="#B5545C" strokeWidth="2" strokeLinecap="round" strokeLinejoin="round"/>
<path d="M88.2928 66.1089C88.7662 65.0863 90.0796 62.8441 89.6253 61.867C89.1709 60.8898 86.025 59.568 86.4106 58.6325C86.7962 57.697 88.5448 55.1671 88.5448 55.1671" stroke="#B5545C" strokeWidth="2" strokeLinecap="round" strokeLinejoin="round"/>
<path d="M93.8212 51.4783L91.4121 56.3641" stroke="#B5545C" strokeWidth="2" strokeLinecap="round" strokeLinejoin="round"/>
<path d="M96.6842 55.7505L94.7256 58.5077" stroke="#B5545C" strokeWidth="2" strokeLinecap="round" strokeLinejoin="round"/>
<path d="M113.235 98.7979L116.733 101.449" stroke="#B5545C" strokeWidth="2" strokeLinecap="round" strokeLinejoin="round"/>
<path d="M114.858 106.805L112.246 104.411" stroke="#B5545C" strokeWidth="2" strokeLinecap="round" strokeLinejoin="round"/>
<path fill-rule="evenodd" clip-rule="evenodd" d="M99.1699 14.0778H103.572C103.778 14.0778 103.954 14.3202 103.954 14.6194V17.3425C103.954 17.6417 103.782 17.8803 103.572 17.8803H99.1699C98.9599 17.8803 98.7881 17.6417 98.7881 17.3425V14.6194C98.7919 14.3202 98.9599 14.0778 99.1699 14.0778Z" fill="#F7981D"/>
<path fill-rule="evenodd" clip-rule="evenodd" d="M105.855 16.1532V17.8272C105.855 17.8764 105.82 17.8954 105.782 17.8727L104.316 17.0432L102.854 16.2062C102.812 16.1835 102.812 16.1456 102.854 16.1229L104.316 15.2821L105.782 14.4451C105.789 14.4399 105.798 14.4369 105.807 14.4364C105.816 14.4359 105.824 14.438 105.832 14.4425C105.84 14.4469 105.846 14.4534 105.85 14.4613C105.854 14.4691 105.856 14.478 105.855 14.4867V16.1532Z" fill="#F7981D"/>
<path d="M95.8291 15.979C95.8291 14.7056 96.2098 13.4607 96.9229 12.4019C97.6361 11.3431 98.6498 10.5178 99.8358 10.0305C101.022 9.5432 102.327 9.41569 103.586 9.66412C104.845 9.91256 106.001 10.5258 106.909 11.4262C107.817 12.3267 108.435 13.4739 108.685 14.7229C108.936 15.9718 108.807 17.2664 108.316 18.4429C107.825 19.6194 106.993 20.625 105.925 21.3325C104.858 22.0399 103.603 22.4176 102.32 22.4176C100.598 22.4176 98.9473 21.7392 97.7301 20.5317C96.5129 19.3243 95.8291 17.6866 95.8291 15.979Z" stroke="#F7981D" strokeWidth="2" strokeLinecap="round" strokeLinejoin="round"/>
<path d="M11.1057 0.378663H104.106C105.347 0.378165 106.575 0.620188 107.721 1.0909C108.867 1.56161 109.909 2.25178 110.786 3.12197C111.663 3.99215 112.359 5.02529 112.834 6.16234C113.308 7.29939 113.552 8.51805 113.551 9.74868V56.7389C113.551 59.224 112.556 61.6073 110.785 63.3645C109.014 65.1217 106.611 66.1089 104.106 66.1089H11.1057C8.6013 66.1079 6.19978 65.1203 4.42923 63.3632C2.65869 61.6061 1.66406 59.2233 1.66406 56.7389V9.74868C1.66356 8.51837 1.90741 7.30002 2.38167 6.16322C2.85594 5.02642 3.55132 3.99344 4.42811 3.12331C5.3049 2.25317 6.34592 1.56292 7.49168 1.09199C8.63745 0.621053 9.86551 0.378663 11.1057 0.378663V0.378663Z" stroke="#9B9B9B" strokeWidth="2" strokeLinecap="round" strokeLinejoin="round"/>
<path d="M112.945 6.38922H2.36719" stroke="#9B9B9B" strokeWidth="2" strokeLinecap="round" strokeLinejoin="round"/>
<path d="M8.45313 3.49576C8.45237 3.23193 8.53055 2.97381 8.67776 2.75407C8.82497 2.53433 9.03459 2.36287 9.28009 2.26139C9.52559 2.1599 9.79592 2.13296 10.0569 2.18397C10.3178 2.23498 10.5576 2.36165 10.746 2.54795C10.9343 2.73424 11.0627 2.97178 11.1148 3.23049C11.167 3.48921 11.1406 3.75745 11.039 4.00128C10.9374 4.2451 10.7651 4.45354 10.5441 4.6002C10.323 4.74685 10.063 4.82514 9.79703 4.82514C9.44127 4.82514 9.10002 4.6852 8.8481 4.43601C8.59618 4.18681 8.45414 3.84869 8.45313 3.49576V3.49576Z" stroke="#F7981D" strokeWidth="2" strokeLinecap="round" strokeLinejoin="round"/>
<path d="M13.7441 3.49576C13.7434 3.23193 13.8216 2.97381 13.9688 2.75407C14.116 2.53433 14.3256 2.36287 14.5711 2.26139C14.8166 2.1599 15.0869 2.13296 15.3479 2.18397C15.6088 2.23498 15.8486 2.36165 16.037 2.54795C16.2253 2.73424 16.3537 2.97178 16.4058 3.23049C16.458 3.48921 16.4316 3.75745 16.33 4.00128C16.2284 4.2451 16.0562 4.45354 15.8351 4.6002C15.614 4.74685 15.354 4.82514 15.088 4.82514C14.9117 4.82564 14.7371 4.79162 14.574 4.72504C14.411 4.65845 14.2628 4.56061 14.138 4.43712C14.0132 4.31362 13.9141 4.16691 13.8465 4.00537C13.7789 3.84384 13.7441 3.67066 13.7441 3.49576V3.49576Z" stroke="#F7981D" strokeWidth="2" strokeLinecap="round" strokeLinejoin="round"/>
<path d="M19.0479 3.49576C19.0471 3.23193 19.1253 2.97381 19.2725 2.75407C19.4197 2.53433 19.6293 2.36287 19.8748 2.26139C20.1203 2.1599 20.3907 2.13296 20.6516 2.18397C20.9125 2.23498 21.1524 2.36165 21.3407 2.54795C21.529 2.73424 21.6574 2.97178 21.7096 3.23049C21.7617 3.48921 21.7353 3.75745 21.6337 4.00128C21.5321 4.2451 21.3599 4.45354 21.1388 4.6002C20.9177 4.74685 20.6577 4.82514 20.3918 4.82514C20.036 4.82514 19.6947 4.6852 19.4428 4.43601C19.1909 4.18681 19.0489 3.84869 19.0479 3.49576V3.49576Z" stroke="#F7981D" strokeWidth="2" strokeLinecap="round" strokeLinejoin="round"/>
<path d="M185.626 113.69L150.307 221.184" stroke="#DFEBFB" strokeWidth="2" strokeLinecap="round" strokeLinejoin="round"/>
<path d="M214.303 113.69L178.983 221.184" stroke="#DFEBFB" strokeWidth="2" strokeLinecap="round" strokeLinejoin="round"/>
<path d="M214.303 113.69L249.618 221.184" stroke="#DFEBFB" strokeWidth="2" strokeLinecap="round" strokeLinejoin="round"/>
<path d="M185.626 113.69L220.942 221.184" stroke="#DFEBFB" strokeWidth="2" strokeLinecap="round" strokeLinejoin="round"/>
<path fill-rule="evenodd" clip-rule="evenodd" d="M124.464 43.7065H179.209C180.342 43.7065 181.428 44.1531 182.23 44.9479C183.031 45.7427 183.481 46.8206 183.481 47.9446V92.7912C183.481 93.9152 183.031 94.9932 182.23 95.788C181.428 96.5828 180.342 97.0293 179.209 97.0293H124.464C123.332 97.0273 122.247 96.5799 121.448 95.7853C120.648 94.9908 120.199 93.9139 120.199 92.7912V47.9446C120.199 46.8219 120.648 45.7451 121.448 44.9505C122.247 44.1559 123.332 43.7085 124.464 43.7065Z" fill="#DFEBFB"/>
<path fill-rule="evenodd" clip-rule="evenodd" d="M124.464 43.7026C123.903 43.7021 123.347 43.8113 122.829 44.0239C122.311 44.2364 121.84 44.5483 121.443 44.9415C121.046 45.3347 120.731 45.8017 120.517 46.3157C120.302 46.8297 120.191 47.3806 120.191 47.937V92.7911C120.196 93.9118 120.649 94.985 121.449 95.7757C122.25 96.5664 123.334 97.0103 124.464 97.0103H127.209C127.186 96.7527 127.125 96.5028 127.125 96.2528V43.7026H124.464Z" fill="#8DC5E0"/>
<path fill-rule="evenodd" clip-rule="evenodd" d="M144.248 83.8075H162.73L173.081 107.161H153.946L144.248 83.8075Z" fill="#8DC5E0"/>
<path fill-rule="evenodd" clip-rule="evenodd" d="M205.991 90.7042H221.217V107.16H205.991V90.7042Z" fill="#8DC5E0"/>
<path d="M217.158 98.9306C217.158 98.1598 217.389 97.4063 217.82 96.7654C218.252 96.1245 218.866 95.625 219.583 95.33C220.301 95.0351 221.091 94.9579 221.853 95.1083C222.615 95.2586 223.315 95.6298 223.865 96.1749C224.414 96.7199 224.788 97.4143 224.94 98.1703C225.092 98.9263 225.014 99.7099 224.716 100.422C224.419 101.134 223.916 101.743 223.269 102.171C222.623 102.599 221.864 102.828 221.087 102.828C220.045 102.828 219.046 102.417 218.309 101.686C217.572 100.955 217.158 99.9642 217.158 98.9306V98.9306Z" stroke="#8DC5E0" strokeWidth="2" strokeLinecap="round" strokeLinejoin="round"/>
<path d="M205.991 93.507H221.087" stroke="#DFEBFB" strokeWidth="2" strokeLinecap="round" strokeLinejoin="round"/>
<path opacity="0.25" fill-rule="evenodd" clip-rule="evenodd" d="M11.1555 0.378662H104.156C106.661 0.378662 109.063 1.36586 110.835 3.12308C112.606 4.8803 113.601 7.2636 113.601 9.74868V56.7389C113.601 59.224 112.606 61.6073 110.835 63.3645C109.063 65.1217 106.661 66.1089 104.156 66.1089H11.1555C8.6511 66.1079 6.24958 65.1203 4.47904 63.3632C2.70849 61.6061 1.71387 59.2233 1.71387 56.7389V9.74868C1.71337 8.51837 1.95721 7.30002 2.43148 6.16322C2.90574 5.02642 3.60113 3.99344 4.47792 3.12331C5.35471 2.25317 6.39572 1.56292 7.54149 1.09199C8.68725 0.621052 9.91532 0.378662 11.1555 0.378662V0.378662Z" fill="#DFEBFB"/>
</svg>
