<svg width="13" height="14" viewBox="0 0 13 14" fill="none" xmlns="http://www.w3.org/2000/svg">
<path d="M6.5 7.40625C7.39746 7.40625 8.125 6.67871 8.125 5.78125C8.125 4.88379 7.39746 4.15625 6.5 4.15625C5.60254 4.15625 4.875 4.88379 4.875 5.78125C4.875 6.67871 5.60254 7.40625 6.5 7.40625Z" stroke="white" stroke-linecap="round" stroke-linejoin="round"/>
<path d="M10.5625 5.78125C10.5625 9.4375 6.5 12.2812 6.5 12.2812C6.5 12.2812 2.4375 9.4375 2.4375 5.78125C2.4375 4.70381 2.86551 3.6705 3.62738 2.90863C4.38925 2.14676 5.42256 1.71875 6.5 1.71875C7.57744 1.71875 8.61075 2.14676 9.37262 2.90863C10.1345 3.6705 10.5625 4.70381 10.5625 5.78125V5.78125Z" stroke="white" stroke-linecap="round" stroke-linejoin="round"/>
</svg>
