<svg width="15" height="16" viewBox="0 0 15 16" fill="none" xmlns="http://www.w3.org/2000/svg">
<path opacity="0.2" d="M5.625 9.875H2.34375C2.21943 9.875 2.1002 9.82561 2.01229 9.73771C1.92439 9.6498 1.875 9.53057 1.875 9.40625V6.59375C1.875 6.46943 1.92439 6.3502 2.01229 6.26229C2.1002 6.17439 2.21943 6.125 2.34375 6.125H5.625V2.84375C5.625 2.71943 5.67439 2.6002 5.76229 2.51229C5.8502 2.42439 5.96943 2.375 6.09375 2.375H8.90625C9.03057 2.375 9.1498 2.42439 9.23771 2.51229C9.32561 2.6002 9.375 2.71943 9.375 2.84375V6.125H12.6562C12.7806 6.125 12.8998 6.17439 12.9877 6.26229C13.0756 6.3502 13.125 6.46943 13.125 6.59375V9.40625C13.125 9.53057 13.0756 9.6498 12.9877 9.73771C12.8998 9.82561 12.7806 9.875 12.6562 9.875H9.375V13.1562C9.375 13.2806 9.32561 13.3998 9.23771 13.4877C9.1498 13.5756 9.03057 13.625 8.90625 13.625H6.09375C5.96943 13.625 5.8502 13.5756 5.76229 13.4877C5.67439 13.3998 5.625 13.2806 5.625 13.1562V9.875Z" fill="#627493"/>
<path d="M5.625 9.875H2.34375C2.21943 9.875 2.1002 9.82561 2.01229 9.73771C1.92439 9.6498 1.875 9.53057 1.875 9.40625V6.59375C1.875 6.46943 1.92439 6.3502 2.01229 6.26229C2.1002 6.17439 2.21943 6.125 2.34375 6.125H5.625V2.84375C5.625 2.71943 5.67439 2.6002 5.76229 2.51229C5.8502 2.42439 5.96943 2.375 6.09375 2.375H8.90625C9.03057 2.375 9.1498 2.42439 9.23771 2.51229C9.32561 2.6002 9.375 2.71943 9.375 2.84375V6.125H12.6562C12.7806 6.125 12.8998 6.17439 12.9877 6.26229C13.0756 6.3502 13.125 6.46943 13.125 6.59375V9.40625C13.125 9.53057 13.0756 9.6498 12.9877 9.73771C12.8998 9.82561 12.7806 9.875 12.6562 9.875H9.375V13.1562C9.375 13.2806 9.32561 13.3998 9.23771 13.4877C9.1498 13.5756 9.03057 13.625 8.90625 13.625H6.09375C5.96943 13.625 5.8502 13.5756 5.76229 13.4877C5.67439 13.3998 5.625 13.2806 5.625 13.1562V9.875Z" stroke="#627493" stroke-linecap="round" stroke-linejoin="round"/>
</svg>
