<svg width="15" height="16" viewBox="0 0 15 16" fill="none" xmlns="http://www.w3.org/2000/svg">
<path opacity="0.2" d="M1.875 12.6875L3.64316 7.38302C3.67427 7.28968 3.73396 7.20851 3.81377 7.15098C3.89358 7.09346 3.98947 7.0625 4.08786 7.0625H12.1875V5.65625C12.1875 5.53193 12.1381 5.4127 12.0502 5.32479C11.9623 5.23689 11.8431 5.1875 11.7188 5.1875H7.65625C7.55483 5.1875 7.45614 5.1546 7.375 5.09375L5.75 3.875C5.66886 3.81415 5.57017 3.78125 5.46875 3.78125H2.34375C2.21943 3.78125 2.1002 3.83064 2.01229 3.91854C1.92439 4.00645 1.875 4.12568 1.875 4.25V12.6875Z" fill="#627493"/>
<path d="M1.875 12.6875V4.25C1.875 4.12568 1.92439 4.00645 2.01229 3.91854C2.1002 3.83064 2.21943 3.78125 2.34375 3.78125H5.46875C5.57017 3.78125 5.66886 3.81415 5.75 3.875L7.375 5.09375C7.45614 5.1546 7.55483 5.1875 7.65625 5.1875H11.7188C11.8431 5.1875 11.9623 5.23689 12.0502 5.32479C12.1381 5.4127 12.1875 5.53193 12.1875 5.65625V7.0625" stroke="#627493" stroke-linecap="round" stroke-linejoin="round"/>
<path d="M1.875 12.6875L3.64316 7.38302C3.67427 7.28968 3.73396 7.20851 3.81377 7.15098C3.89358 7.09346 3.98947 7.0625 4.08786 7.0625H13.4121C13.4864 7.0625 13.5596 7.08015 13.6257 7.114C13.6919 7.14784 13.749 7.19691 13.7924 7.25717C13.8358 7.31742 13.8643 7.38713 13.8755 7.46056C13.8867 7.53398 13.8803 7.60902 13.8568 7.67948L12.1875 12.6875H1.875Z" stroke="#627493" stroke-linecap="round" stroke-linejoin="round"/>
</svg>
