<svg width="15" height="16" viewBox="0 0 15 16" fill="none" xmlns="http://www.w3.org/2000/svg">
<path opacity="0.2" d="M12.4131 8.30044C12.4253 8.10033 12.4131 7.69958 12.4131 7.69958L13.3831 6.40631C13.2473 5.90298 13.0472 5.41928 12.7875 4.9672L11.1866 4.73859C11.0537 4.58848 10.9118 4.44657 10.7617 4.31366L10.5331 2.71338C10.0812 2.45345 9.59766 2.25296 9.09441 2.11688L7.80075 3.08725C7.60062 3.07509 7.39994 3.07509 7.19982 3.08725L5.9066 2.1173C5.40328 2.25305 4.91958 2.45322 4.46751 2.71283L4.23891 4.31375C4.08879 4.44665 3.94688 4.58856 3.81397 4.73868L2.21368 4.96723C1.95377 5.41914 1.75328 5.90271 1.61719 6.40596L2.58756 7.69963C2.5754 7.89974 2.58759 8.30048 2.58759 8.30048L1.61762 9.59375C1.75336 10.0971 1.95352 10.5808 2.21314 11.0329L3.81405 11.2615C3.94696 11.4116 4.08887 11.5535 4.239 11.6864L4.46754 13.2867C4.91944 13.5466 5.40301 13.7471 5.90626 13.8832L7.19993 12.9128C7.40006 12.925 7.60073 12.925 7.80086 12.9128L9.09407 13.8828C9.5974 13.747 10.0811 13.5469 10.5332 13.2872L10.7618 11.6863C10.9119 11.5534 11.1866 11.2614 11.1866 11.2614L12.787 11.0328C13.0469 10.5809 13.2474 10.0974 13.3835 9.59412L12.4131 8.30044ZM7.50031 10.8125C6.94405 10.8125 6.40028 10.6476 5.93777 10.3385C5.47525 10.0295 5.11477 9.59022 4.9019 9.0763C4.68903 8.56238 4.63333 7.99688 4.74185 7.45131C4.85037 6.90574 5.11824 6.4046 5.51157 6.01127C5.90491 5.61793 6.40605 5.35007 6.95162 5.24155C7.49719 5.13302 8.06269 5.18872 8.57661 5.40159C9.09052 5.61446 9.52978 5.97495 9.83882 6.43746C10.1479 6.89998 10.3128 7.44374 10.3128 8C10.3128 8.36935 10.2401 8.73507 10.0987 9.0763C9.95738 9.41753 9.75021 9.72758 9.48905 9.98874C9.22788 10.2499 8.91784 10.4571 8.57661 10.5984C8.23538 10.7398 7.86965 10.8125 7.50031 10.8125Z" fill="#627493"/>
<path d="M7.50024 10.8125C9.05354 10.8125 10.3127 9.5533 10.3127 8C10.3127 6.4467 9.05354 5.1875 7.50024 5.1875C5.94694 5.1875 4.68774 6.4467 4.68774 8C4.68774 9.5533 5.94694 10.8125 7.50024 10.8125Z" stroke="#627493" stroke-linecap="round" stroke-linejoin="round"/>
<path d="M10.7617 4.31361C10.9118 4.44652 11.0537 4.58842 11.1866 4.73854L12.7875 4.96714C13.0472 5.41922 13.2473 5.90292 13.3831 6.40625L12.4131 7.69952C12.4131 7.69952 12.4253 8.10027 12.4131 8.30039L13.3835 9.59406C13.2474 10.0973 13.0469 10.5809 12.787 11.0328L11.1866 11.2614C11.1866 11.2614 10.9119 11.5534 10.7618 11.6863L10.5332 13.2872C10.0811 13.5468 9.5974 13.747 9.09407 13.8827L7.80088 12.9128C7.60075 12.9249 7.40006 12.9249 7.19993 12.9128L5.90626 13.8831C5.40302 13.747 4.91945 13.5465 4.46755 13.2866L4.23899 11.6863C4.08888 11.5534 3.94697 11.4115 3.81406 11.2614L2.21314 11.0328C1.95352 10.5807 1.75336 10.097 1.61761 9.5937L2.5876 8.30043C2.5876 8.30043 2.5754 7.89968 2.58756 7.69957L1.61719 6.4059C1.75328 5.90265 1.95377 5.41909 2.21369 4.96719L3.81397 4.73863C3.94688 4.58851 4.08879 4.4466 4.2389 4.31369L4.46751 2.71277C4.91958 2.45316 5.40329 2.25299 5.90662 2.11724L7.19981 3.0872C7.39994 3.07503 7.60062 3.07503 7.80075 3.08719L9.09442 2.11682C9.59767 2.25291 10.0812 2.4534 10.5331 2.71333L10.7617 4.31361Z" stroke="#627493" stroke-linecap="round" stroke-linejoin="round"/>
</svg>
