<svg width="27" height="27" viewBox="0 0 27 27" fill="none" xmlns="http://www.w3.org/2000/svg">
<path opacity="0.2" d="M12.039 4.21714L2.76022 20.2476C2.61175 20.5041 2.53345 20.7952 2.5332 21.0915C2.53296 21.3879 2.61077 21.6791 2.75882 21.9359C2.90687 22.1926 3.11992 22.4059 3.37655 22.5541C3.63318 22.7024 3.92433 22.7804 4.22071 22.7804H22.7782C23.0746 22.7804 23.3657 22.7024 23.6224 22.5541C23.879 22.4059 24.092 22.1926 24.2401 21.9359C24.3881 21.6791 24.4659 21.3879 24.4657 21.0915C24.4655 20.7952 24.3872 20.5041 24.2387 20.2476L14.9599 4.21714C14.8117 3.96104 14.5987 3.74843 14.3424 3.60062C14.0861 3.45281 13.7954 3.375 13.4994 3.375C13.2035 3.375 12.9128 3.45281 12.6565 3.60062C12.4002 3.74843 12.1872 3.96104 12.039 4.21714Z" fill="#FFC129"/>
<path d="M13.5 11.8125V15.1875" stroke="#FFC129" stroke-width="2" stroke-linecap="round" stroke-linejoin="round"/>
<path d="M12.039 4.21714L2.76022 20.2476C2.61175 20.5041 2.53345 20.7952 2.5332 21.0915C2.53296 21.3879 2.61077 21.6791 2.75882 21.9359C2.90687 22.1926 3.11992 22.4059 3.37655 22.5541C3.63318 22.7024 3.92433 22.7804 4.22071 22.7804H22.7782C23.0746 22.7804 23.3657 22.7024 23.6224 22.5541C23.879 22.4059 24.092 22.1926 24.2401 21.9359C24.3881 21.6791 24.4659 21.3879 24.4657 21.0915C24.4655 20.7952 24.3872 20.5041 24.2387 20.2476L14.9599 4.21714C14.8117 3.96104 14.5987 3.74843 14.3424 3.60062C14.0861 3.45281 13.7954 3.375 13.4994 3.375C13.2035 3.375 12.9128 3.45281 12.6565 3.60062C12.4002 3.74843 12.1872 3.96104 12.039 4.21714V4.21714Z" stroke="#FFC129" stroke-width="2" stroke-linecap="round" stroke-linejoin="round"/>
<path d="M13.5 20.25C14.199 20.25 14.7656 19.6834 14.7656 18.9844C14.7656 18.2854 14.199 17.7188 13.5 17.7188C12.801 17.7188 12.2344 18.2854 12.2344 18.9844C12.2344 19.6834 12.801 20.25 13.5 20.25Z" fill="#FFC129"/>
</svg>
