<svg width="78" height="62" viewBox="0 0 78 62" fill="none" xmlns="http://www.w3.org/2000/svg">
<path opacity="0.2" d="M47.9355 20.2812H11.0605C10.5716 20.2812 10.1026 20.4755 9.75682 20.8213C9.41105 21.167 9.2168 21.636 9.2168 22.125V47.9375C9.2168 48.4265 9.41105 48.8955 9.75682 49.2412C10.1026 49.587 10.5716 49.7812 11.0605 49.7812H47.9355C48.4245 49.7812 48.8935 49.587 49.2393 49.2412C49.585 48.8955 49.7793 48.4265 49.7793 47.9375V22.125C49.7793 21.636 49.585 21.167 49.2393 20.8213C48.8935 20.4755 48.4245 20.2812 47.9355 20.2812ZM29.498 36.875C28.5864 36.875 27.6952 36.6047 26.9372 36.0982C26.1792 35.5917 25.5884 34.8718 25.2395 34.0296C24.8907 33.1873 24.7994 32.2605 24.9772 31.3664C25.1551 30.4722 25.5941 29.6509 26.2387 29.0063C26.8834 28.3617 27.7047 27.9227 28.5988 27.7448C29.4929 27.567 30.4197 27.6582 31.262 28.0071C32.1042 28.356 32.8241 28.9468 33.3306 29.7048C33.8371 30.4628 34.1074 31.354 34.1074 32.2656C34.1074 33.4881 33.6218 34.6605 32.7574 35.5249C31.8929 36.3894 30.7205 36.875 29.498 36.875Z" fill="#066DC6"/>
<path d="M29.498 36.875C32.0437 36.875 34.1074 34.8113 34.1074 32.2656C34.1074 29.7199 32.0437 27.6562 29.498 27.6562C26.9524 27.6562 24.8887 29.7199 24.8887 32.2656C24.8887 34.8113 26.9524 36.875 29.498 36.875Z" stroke="#066DC6" stroke-width="2" stroke-linecap="round" stroke-linejoin="round"/>
<path d="M29.498 36.875V42.4062" stroke="#066DC6" stroke-width="2" stroke-linecap="round" stroke-linejoin="round"/>
<path d="M47.9355 20.2812H11.0605C10.0423 20.2812 9.2168 21.1067 9.2168 22.125V47.9375C9.2168 48.9558 10.0423 49.7812 11.0605 49.7812H47.9355C48.9538 49.7812 49.7793 48.9558 49.7793 47.9375V22.125C49.7793 21.1067 48.9538 20.2812 47.9355 20.2812Z" stroke="#066DC6" stroke-width="2" stroke-linecap="round" stroke-linejoin="round"/>
<path d="M21.2012 20.2812V11.9844C21.2012 9.78391 22.0753 7.67356 23.6313 6.1176C25.1872 4.56163 27.2976 3.6875 29.498 3.6875C31.6985 3.6875 33.8089 4.56163 35.3648 6.1176C36.9208 7.67356 37.7949 9.78391 37.7949 11.9844V20.2812" stroke="#066DC6" stroke-width="2" stroke-linecap="round" stroke-linejoin="round"/>
<path d="M29 44.9998C29 41.686 31.6863 41.9999 35 41.9999H70C73.3137 41.9999 76 41.6861 76 44.9998V56.4998C76 59.8135 73.3137 59.9999 70 59.9999H35C31.6863 59.9999 29 59.8135 29 56.4998V44.9998Z" fill="white" stroke="#F7981D" stroke-width="1.5" stroke-linejoin="round"/>
<circle cx="42" cy="51" r="3" fill="#F7981D"/>
<circle cx="56" cy="51" r="3" fill="#F7981D"/>
<circle cx="49" cy="51" r="3" fill="#F7981D"/>
<circle cx="63" cy="51" r="3" fill="#F7981D"/>
</svg>
