<svg width="15" height="15" viewBox="0 0 15 15" fill="none" xmlns="http://www.w3.org/2000/svg">
<path d="M13.6074 10.1393L10.3141 8.72786C10.1421 8.65384 9.95441 8.62403 9.768 8.64116C9.58158 8.65829 9.40242 8.7218 9.24684 8.82591L7.48601 9.99966C6.40984 9.47625 5.53882 8.60907 5.01065 7.53522L5.01079 7.53509L6.18042 5.74788C6.28223 5.59273 6.344 5.41476 6.3602 5.22989C6.3764 5.04503 6.34653 4.85903 6.27325 4.68853L4.86055 1.39243C4.76439 1.16869 4.59834 0.982115 4.38726 0.860647C4.17619 0.739179 3.93145 0.68935 3.68968 0.718621C2.73967 0.840768 1.86661 1.3046 1.23361 2.02346C0.600614 2.74232 0.250971 3.66704 0.25 4.62488C0.25 10.2079 4.79202 14.7499 10.375 14.7499C11.3328 14.7489 12.2576 14.3993 12.9764 13.7662C13.6953 13.1332 14.1591 12.2602 14.2813 11.3101C14.3104 11.0684 14.2606 10.8236 14.1391 10.6126C14.0176 10.4015 13.8311 10.2355 13.6074 10.1393Z" fill="#F7981D"/>
</svg>
