<svg width="116" height="116" viewBox="0 0 116 116" fill="none" xmlns="http://www.w3.org/2000/svg">
<path fill-rule="evenodd" clip-rule="evenodd" d="M58 109.75C86.5804 109.75 109.75 86.5804 109.75 58C109.75 29.4196 86.5804 6.25 58 6.25C29.4196 6.25 6.25 29.4196 6.25 58C6.25 86.5804 29.4196 109.75 58 109.75ZM58 115.5C89.7572 115.5 115.5 89.7572 115.5 58C115.5 26.2428 89.7572 0.5 58 0.5C26.2428 0.5 0.5 26.2428 0.5 58C0.5 89.7572 26.2428 115.5 58 115.5Z" fill="#0785F3"/>
<path d="M23.5 91.4361C23.5 88.4662 25.7195 85.9563 28.675 85.6286C50.8556 83.1733 65.245 83.3947 87.3767 85.6832C88.4819 85.7993 89.5294 86.2347 90.3912 86.9362C91.253 87.6378 91.8918 88.5751 92.2297 89.6338C92.5675 90.6925 92.5898 91.8266 92.2936 92.8977C91.9975 93.9688 91.3959 94.9304 90.5622 95.6652C64.4429 118.432 49.5159 118.119 25.34 95.6882C24.1613 94.5957 23.5 93.0432 23.5 91.439V91.4361Z" fill="#0785F3"/>
<path fill-rule="evenodd" clip-rule="evenodd" d="M87.0806 88.5414C65.1243 86.2702 50.9419 86.0574 28.9884 88.4868C27.5106 88.6507 26.375 89.9128 26.375 91.4394C26.375 92.2617 26.7171 93.0408 27.295 93.5813C39.278 104.696 48.3573 109.719 57.2324 109.75C66.1391 109.782 75.7071 104.8 88.6734 93.5008C89.0853 93.1341 89.3819 92.6557 89.527 92.1237C89.6721 91.5917 89.6595 91.029 89.4908 90.5039C89.3221 89.9789 89.0045 89.5142 88.5766 89.1663C88.1488 88.8184 87.629 88.6023 87.0806 88.5443V88.5414ZM28.3588 82.7713C50.7723 80.2902 65.3715 80.5144 87.6758 82.823C89.3384 82.9966 90.9143 83.6511 92.2107 84.7065C93.507 85.7619 94.4675 87.1724 94.9746 88.7653C95.4816 90.3582 95.5133 92.0644 95.0656 93.675C94.6179 95.2856 93.7104 96.7307 92.454 97.8334C79.3009 109.299 68.3471 115.543 57.2151 115.5C46.0515 115.46 35.5808 109.109 23.3879 97.796C22.5149 96.9829 21.819 95.9985 21.3436 94.9043C20.8682 93.81 20.6236 92.6296 20.625 91.4365C20.6208 89.293 21.4076 87.2233 22.8346 85.6239C24.2617 84.0244 26.2286 83.0077 28.3588 82.7684V82.7713Z" fill="#0785F3"/>
<path d="M81 46.5C81 52.6 78.5768 58.4501 74.2635 62.7635C69.9501 67.0768 64.1 69.5 58 69.5C51.9 69.5 46.0499 67.0768 41.7365 62.7635C37.4232 58.4501 35 52.6 35 46.5C35 40.4 37.4232 34.5499 41.7365 30.2365C46.0499 25.9232 51.9 23.5 58 23.5C64.1 23.5 69.9501 25.9232 74.2635 30.2365C78.5768 34.5499 81 40.4 81 46.5Z" fill="#0785F3"/>
<path fill-rule="evenodd" clip-rule="evenodd" d="M58 63.75C62.575 63.75 66.9626 61.9326 70.1976 58.6976C73.4326 55.4626 75.25 51.075 75.25 46.5C75.25 41.925 73.4326 37.5374 70.1976 34.3024C66.9626 31.0674 62.575 29.25 58 29.25C53.425 29.25 49.0374 31.0674 45.8024 34.3024C42.5674 37.5374 40.75 41.925 40.75 46.5C40.75 51.075 42.5674 55.4626 45.8024 58.6976C49.0374 61.9326 53.425 63.75 58 63.75ZM58 69.5C64.1 69.5 69.9501 67.0768 74.2635 62.7635C78.5768 58.4501 81 52.6 81 46.5C81 40.4 78.5768 34.5499 74.2635 30.2365C69.9501 25.9232 64.1 23.5 58 23.5C51.9 23.5 46.0499 25.9232 41.7365 30.2365C37.4232 34.5499 35 40.4 35 46.5C35 52.6 37.4232 58.4501 41.7365 62.7635C46.0499 67.0768 51.9 69.5 58 69.5Z" fill="#0785F3"/>
</svg>
