<svg width="58" height="59" viewBox="0 0 58 59" fill="none" xmlns="http://www.w3.org/2000/svg">
<g clip-path="url(#clip0_758_49419)">
<path d="M7.74939 50.2914C5.76371 48.3057 7.08073 44.1369 6.07003 41.6941C5.02231 39.1619 1.17773 37.1239 1.17773 34.426C1.17773 31.7281 5.02233 29.6901 6.07005 27.1579C7.08074 24.7152 5.76371 20.5463 7.74939 18.5607C9.73506 16.575 13.9039 17.892 16.3466 16.8813C18.8789 15.8336 20.9169 11.989 23.6148 11.989C26.3127 11.989 28.3507 15.8336 30.8829 16.8813C33.3256 17.892 37.4944 16.575 39.4801 18.5607C41.4658 20.5463 40.1488 24.7152 41.1595 27.1579C42.2072 29.6902 46.0518 31.7282 46.0518 34.4261C46.0518 37.124 42.2072 39.162 41.1595 41.6942C40.1488 44.1369 41.4658 48.3057 39.4801 50.2914C37.4945 52.2771 33.3256 50.9601 30.8829 51.9708C28.3506 53.0185 26.3126 56.8631 23.6147 56.8631C20.9168 56.8631 18.8788 53.0185 16.3466 51.9707C13.9039 50.96 9.73506 52.2771 7.74939 50.2914Z" fill="#066DC6" fill-opacity="0.2" stroke="#066DC6" stroke-width="2" stroke-linecap="round" stroke-linejoin="round"/>
<path d="M23.6144 47.8019C24.8059 47.8019 25.7718 46.836 25.7718 45.6445C25.7718 44.453 24.8059 43.4871 23.6144 43.4871C22.4229 43.4871 21.457 44.453 21.457 45.6445C21.457 46.836 22.4229 47.8019 23.6144 47.8019Z" fill="#066DC6"/>
<path d="M23.615 37.8784V36.1525C24.8097 36.1525 25.9776 35.7982 26.971 35.1345C27.9644 34.4707 28.7387 33.5273 29.1959 32.4235C29.6531 31.3197 29.7727 30.1051 29.5396 28.9333C29.3065 27.7615 28.7312 26.6852 27.8864 25.8403C27.0416 24.9955 25.9652 24.4202 24.7935 24.1871C23.6217 23.954 22.4071 24.0737 21.3033 24.5309C20.1995 24.9881 19.256 25.7623 18.5923 26.7557C17.9285 27.7491 17.5742 28.917 17.5742 30.1118" stroke="#066DC6" stroke-width="2" stroke-linecap="round" stroke-linejoin="round"/>
</g>
<g clip-path="url(#clip1_758_49419)">
<path opacity="0.2" d="M27.8594 14.6013V5.05689C27.8594 4.7117 27.9965 4.38066 28.2406 4.13658C28.4847 3.8925 28.8157 3.75537 29.1609 3.75537H55.1912C55.5364 3.75537 55.8675 3.8925 56.1115 4.13658C56.3556 4.38066 56.4927 4.7117 56.4927 5.05689V14.6013C56.4927 28.2698 44.892 32.7982 42.5757 33.5662C42.3167 33.6553 42.0354 33.6553 41.7765 33.5662C39.4601 32.7982 27.8594 28.2698 27.8594 14.6013Z" fill="white"/>
<path d="M27.8594 14.6013V5.05689C27.8594 4.7117 27.9965 4.38066 28.2406 4.13658C28.4847 3.8925 28.8157 3.75537 29.1609 3.75537H55.1912C55.5364 3.75537 55.8675 3.8925 56.1115 4.13658C56.3556 4.38066 56.4927 4.7117 56.4927 5.05689V14.6013C56.4927 28.2698 44.892 32.7982 42.5757 33.5662C42.3167 33.6553 42.0354 33.6553 41.7765 33.5662C39.4601 32.7982 27.8594 28.2698 27.8594 14.6013Z" fill="white" stroke="#F7981D" stroke-width="2" stroke-linecap="round" stroke-linejoin="round"/>
<path d="M49.3343 12.8662L39.7898 21.9768L35.0176 17.4215" stroke="#F7981D" stroke-width="2" stroke-linecap="round" stroke-linejoin="round"/>
</g>
<defs>
<clipPath id="clip0_758_49419">
<rect width="47.8106" height="49.3014" fill="white" transform="translate(0 9.69849)"/>
</clipPath>
<clipPath id="clip1_758_49419">
<rect width="36.0539" height="37.1781" fill="white" transform="translate(21.9453)"/>
</clipPath>
</defs>
</svg>
